%TF.GenerationSoftware,KiCad,Pcbnew,(6.0.4)*%
%TF.CreationDate,2022-04-05T20:31:29-07:00*%
%TF.ProjectId,rfkvm,72666b76-6d2e-46b6-9963-61645f706362,rev?*%
%TF.SameCoordinates,Original*%
%TF.FileFunction,Legend,Top*%
%TF.FilePolarity,Positive*%
%FSLAX46Y46*%
G04 Gerber Fmt 4.6, Leading zero omitted, Abs format (unit mm)*
G04 Created by KiCad (PCBNEW (6.0.4)) date 2022-04-05 20:31:29*
%MOMM*%
%LPD*%
G01*
G04 APERTURE LIST*
%ADD10C,0.150000*%
%ADD11C,0.113792*%
%ADD12C,0.142240*%
%ADD13C,0.120000*%
%ADD14C,0.050000*%
%ADD15C,0.203200*%
G04 APERTURE END LIST*
D10*
%TO.C,A2*%
X128933214Y-53506666D02*
X129409404Y-53506666D01*
X128837976Y-53792380D02*
X129171309Y-52792380D01*
X129504642Y-53792380D01*
X129790357Y-52887619D02*
X129837976Y-52840000D01*
X129933214Y-52792380D01*
X130171309Y-52792380D01*
X130266547Y-52840000D01*
X130314166Y-52887619D01*
X130361785Y-52982857D01*
X130361785Y-53078095D01*
X130314166Y-53220952D01*
X129742738Y-53792380D01*
X130361785Y-53792380D01*
%TO.C,A1*%
X100885714Y-53506666D02*
X101361904Y-53506666D01*
X100790476Y-53792380D02*
X101123809Y-52792380D01*
X101457142Y-53792380D01*
X102314285Y-53792380D02*
X101742857Y-53792380D01*
X102028571Y-53792380D02*
X102028571Y-52792380D01*
X101933333Y-52935238D01*
X101838095Y-53030476D01*
X101742857Y-53078095D01*
%TO.C,SW3*%
X145986666Y-56284761D02*
X146129523Y-56332380D01*
X146367619Y-56332380D01*
X146462857Y-56284761D01*
X146510476Y-56237142D01*
X146558095Y-56141904D01*
X146558095Y-56046666D01*
X146510476Y-55951428D01*
X146462857Y-55903809D01*
X146367619Y-55856190D01*
X146177142Y-55808571D01*
X146081904Y-55760952D01*
X146034285Y-55713333D01*
X145986666Y-55618095D01*
X145986666Y-55522857D01*
X146034285Y-55427619D01*
X146081904Y-55380000D01*
X146177142Y-55332380D01*
X146415238Y-55332380D01*
X146558095Y-55380000D01*
X146891428Y-55332380D02*
X147129523Y-56332380D01*
X147320000Y-55618095D01*
X147510476Y-56332380D01*
X147748571Y-55332380D01*
X148034285Y-55332380D02*
X148653333Y-55332380D01*
X148320000Y-55713333D01*
X148462857Y-55713333D01*
X148558095Y-55760952D01*
X148605714Y-55808571D01*
X148653333Y-55903809D01*
X148653333Y-56141904D01*
X148605714Y-56237142D01*
X148558095Y-56284761D01*
X148462857Y-56332380D01*
X148177142Y-56332380D01*
X148081904Y-56284761D01*
X148034285Y-56237142D01*
%TO.C,SW2*%
X145986666Y-66444761D02*
X146129523Y-66492380D01*
X146367619Y-66492380D01*
X146462857Y-66444761D01*
X146510476Y-66397142D01*
X146558095Y-66301904D01*
X146558095Y-66206666D01*
X146510476Y-66111428D01*
X146462857Y-66063809D01*
X146367619Y-66016190D01*
X146177142Y-65968571D01*
X146081904Y-65920952D01*
X146034285Y-65873333D01*
X145986666Y-65778095D01*
X145986666Y-65682857D01*
X146034285Y-65587619D01*
X146081904Y-65540000D01*
X146177142Y-65492380D01*
X146415238Y-65492380D01*
X146558095Y-65540000D01*
X146891428Y-65492380D02*
X147129523Y-66492380D01*
X147320000Y-65778095D01*
X147510476Y-66492380D01*
X147748571Y-65492380D01*
X148081904Y-65587619D02*
X148129523Y-65540000D01*
X148224761Y-65492380D01*
X148462857Y-65492380D01*
X148558095Y-65540000D01*
X148605714Y-65587619D01*
X148653333Y-65682857D01*
X148653333Y-65778095D01*
X148605714Y-65920952D01*
X148034285Y-66492380D01*
X148653333Y-66492380D01*
%TO.C,U3*%
X210058095Y-57872380D02*
X210058095Y-58681904D01*
X210105714Y-58777142D01*
X210153333Y-58824761D01*
X210248571Y-58872380D01*
X210439047Y-58872380D01*
X210534285Y-58824761D01*
X210581904Y-58777142D01*
X210629523Y-58681904D01*
X210629523Y-57872380D01*
X211010476Y-57872380D02*
X211629523Y-57872380D01*
X211296190Y-58253333D01*
X211439047Y-58253333D01*
X211534285Y-58300952D01*
X211581904Y-58348571D01*
X211629523Y-58443809D01*
X211629523Y-58681904D01*
X211581904Y-58777142D01*
X211534285Y-58824761D01*
X211439047Y-58872380D01*
X211153333Y-58872380D01*
X211058095Y-58824761D01*
X211010476Y-58777142D01*
D11*
X211623994Y-65369149D02*
X211590708Y-65402435D01*
X211490850Y-65435721D01*
X211424278Y-65435721D01*
X211324419Y-65402435D01*
X211257847Y-65335863D01*
X211224561Y-65269291D01*
X211191275Y-65136147D01*
X211191275Y-65036288D01*
X211224561Y-64903144D01*
X211257847Y-64836572D01*
X211324419Y-64770000D01*
X211424278Y-64736713D01*
X211490850Y-64736713D01*
X211590708Y-64770000D01*
X211623994Y-64803286D01*
X212323002Y-65369149D02*
X212289716Y-65402435D01*
X212189858Y-65435721D01*
X212123286Y-65435721D01*
X212023427Y-65402435D01*
X211956855Y-65335863D01*
X211923569Y-65269291D01*
X211890283Y-65136147D01*
X211890283Y-65036288D01*
X211923569Y-64903144D01*
X211956855Y-64836572D01*
X212023427Y-64770000D01*
X212123286Y-64736713D01*
X212189858Y-64736713D01*
X212289716Y-64770000D01*
X212323002Y-64803286D01*
X212988724Y-65435721D02*
X212589291Y-65435721D01*
X212789008Y-65435721D02*
X212789008Y-64736713D01*
X212722435Y-64836572D01*
X212655863Y-64903144D01*
X212589291Y-64936430D01*
X206394207Y-65435721D02*
X206394207Y-64736713D01*
X206560637Y-64736713D01*
X206660496Y-64770000D01*
X206727068Y-64836572D01*
X206760354Y-64903144D01*
X206793640Y-65036288D01*
X206793640Y-65136147D01*
X206760354Y-65269291D01*
X206727068Y-65335863D01*
X206660496Y-65402435D01*
X206560637Y-65435721D01*
X206394207Y-65435721D01*
X207093215Y-65169433D02*
X207625792Y-65169433D01*
X207359504Y-65435721D02*
X207359504Y-64903144D01*
X215888485Y-64736713D02*
X216121488Y-65435721D01*
X216354490Y-64736713D01*
X216820496Y-65069574D02*
X216920354Y-65102860D01*
X216953640Y-65136147D01*
X216986926Y-65202719D01*
X216986926Y-65302577D01*
X216953640Y-65369149D01*
X216920354Y-65402435D01*
X216853782Y-65435721D01*
X216587493Y-65435721D01*
X216587493Y-64736713D01*
X216820496Y-64736713D01*
X216887068Y-64770000D01*
X216920354Y-64803286D01*
X216953640Y-64869858D01*
X216953640Y-64936430D01*
X216920354Y-65003002D01*
X216887068Y-65036288D01*
X216820496Y-65069574D01*
X216587493Y-65069574D01*
X217286501Y-64736713D02*
X217286501Y-65302577D01*
X217319787Y-65369149D01*
X217353073Y-65402435D01*
X217419645Y-65435721D01*
X217552790Y-65435721D01*
X217619362Y-65402435D01*
X217652648Y-65369149D01*
X217685934Y-65302577D01*
X217685934Y-64736713D01*
X217985509Y-65402435D02*
X218085367Y-65435721D01*
X218251798Y-65435721D01*
X218318370Y-65402435D01*
X218351656Y-65369149D01*
X218384942Y-65302577D01*
X218384942Y-65236005D01*
X218351656Y-65169433D01*
X218318370Y-65136147D01*
X218251798Y-65102860D01*
X218118653Y-65069574D01*
X218052081Y-65036288D01*
X218018795Y-65003002D01*
X217985509Y-64936430D01*
X217985509Y-64869858D01*
X218018795Y-64803286D01*
X218052081Y-64770000D01*
X218118653Y-64736713D01*
X218285084Y-64736713D01*
X218384942Y-64770000D01*
X213381771Y-62163427D02*
X213481629Y-62196713D01*
X213648060Y-62196713D01*
X213714632Y-62163427D01*
X213747918Y-62130141D01*
X213781204Y-62063569D01*
X213781204Y-61996997D01*
X213747918Y-61930425D01*
X213714632Y-61897139D01*
X213648060Y-61863852D01*
X213514915Y-61830566D01*
X213448343Y-61797280D01*
X213415057Y-61763994D01*
X213381771Y-61697422D01*
X213381771Y-61630850D01*
X213415057Y-61564278D01*
X213448343Y-61530992D01*
X213514915Y-61497705D01*
X213681346Y-61497705D01*
X213781204Y-61530992D01*
X214313782Y-61830566D02*
X214413640Y-61863852D01*
X214446926Y-61897139D01*
X214480212Y-61963711D01*
X214480212Y-62063569D01*
X214446926Y-62130141D01*
X214413640Y-62163427D01*
X214347068Y-62196713D01*
X214080779Y-62196713D01*
X214080779Y-61497705D01*
X214313782Y-61497705D01*
X214380354Y-61530992D01*
X214413640Y-61564278D01*
X214446926Y-61630850D01*
X214446926Y-61697422D01*
X214413640Y-61763994D01*
X214380354Y-61797280D01*
X214313782Y-61830566D01*
X214080779Y-61830566D01*
X214779787Y-61497705D02*
X214779787Y-62063569D01*
X214813073Y-62130141D01*
X214846359Y-62163427D01*
X214912931Y-62196713D01*
X215046076Y-62196713D01*
X215112648Y-62163427D01*
X215145934Y-62130141D01*
X215179220Y-62063569D01*
X215179220Y-61497705D01*
X215478795Y-61564278D02*
X215512081Y-61530992D01*
X215578653Y-61497705D01*
X215745084Y-61497705D01*
X215811656Y-61530992D01*
X215844942Y-61564278D01*
X215878228Y-61630850D01*
X215878228Y-61697422D01*
X215844942Y-61797280D01*
X215445509Y-62196713D01*
X215878228Y-62196713D01*
X218923422Y-61530992D02*
X218856850Y-61497705D01*
X218756992Y-61497705D01*
X218657133Y-61530992D01*
X218590561Y-61597564D01*
X218557275Y-61664136D01*
X218523989Y-61797280D01*
X218523989Y-61897139D01*
X218557275Y-62030283D01*
X218590561Y-62096855D01*
X218657133Y-62163427D01*
X218756992Y-62196713D01*
X218823564Y-62196713D01*
X218923422Y-62163427D01*
X218956708Y-62130141D01*
X218956708Y-61897139D01*
X218823564Y-61897139D01*
X219256283Y-62196713D02*
X219256283Y-61497705D01*
X219655716Y-62196713D01*
X219655716Y-61497705D01*
X219988577Y-62196713D02*
X219988577Y-61497705D01*
X220155008Y-61497705D01*
X220254866Y-61530992D01*
X220321438Y-61597564D01*
X220354724Y-61664136D01*
X220388010Y-61797280D01*
X220388010Y-61897139D01*
X220354724Y-62030283D01*
X220321438Y-62096855D01*
X220254866Y-62163427D01*
X220155008Y-62196713D01*
X219988577Y-62196713D01*
D12*
X208947657Y-53298392D02*
X208947657Y-54005721D01*
X208989264Y-54088937D01*
X209030872Y-54130544D01*
X209114087Y-54172152D01*
X209280518Y-54172152D01*
X209363733Y-54130544D01*
X209405340Y-54088937D01*
X209446948Y-54005721D01*
X209446948Y-53298392D01*
X209821417Y-54130544D02*
X209946240Y-54172152D01*
X210154278Y-54172152D01*
X210237493Y-54130544D01*
X210279100Y-54088937D01*
X210320708Y-54005721D01*
X210320708Y-53922506D01*
X210279100Y-53839291D01*
X210237493Y-53797683D01*
X210154278Y-53756076D01*
X209987847Y-53714468D01*
X209904632Y-53672860D01*
X209863024Y-53631253D01*
X209821417Y-53548038D01*
X209821417Y-53464822D01*
X209863024Y-53381607D01*
X209904632Y-53340000D01*
X209987847Y-53298392D01*
X210195885Y-53298392D01*
X210320708Y-53340000D01*
X210986430Y-53714468D02*
X211111253Y-53756076D01*
X211152860Y-53797683D01*
X211194468Y-53880899D01*
X211194468Y-54005721D01*
X211152860Y-54088937D01*
X211111253Y-54130544D01*
X211028038Y-54172152D01*
X210695177Y-54172152D01*
X210695177Y-53298392D01*
X210986430Y-53298392D01*
X211069645Y-53340000D01*
X211111253Y-53381607D01*
X211152860Y-53464822D01*
X211152860Y-53548038D01*
X211111253Y-53631253D01*
X211069645Y-53672860D01*
X210986430Y-53714468D01*
X210695177Y-53714468D01*
X212733950Y-54088937D02*
X212692342Y-54130544D01*
X212567520Y-54172152D01*
X212484304Y-54172152D01*
X212359481Y-54130544D01*
X212276266Y-54047329D01*
X212234659Y-53964114D01*
X212193051Y-53797683D01*
X212193051Y-53672860D01*
X212234659Y-53506430D01*
X212276266Y-53423215D01*
X212359481Y-53340000D01*
X212484304Y-53298392D01*
X212567520Y-53298392D01*
X212692342Y-53340000D01*
X212733950Y-53381607D01*
D11*
X208934207Y-62196713D02*
X208934207Y-61497705D01*
X209100637Y-61497705D01*
X209200496Y-61530992D01*
X209267068Y-61597564D01*
X209300354Y-61664136D01*
X209333640Y-61797280D01*
X209333640Y-61897139D01*
X209300354Y-62030283D01*
X209267068Y-62096855D01*
X209200496Y-62163427D01*
X209100637Y-62196713D01*
X208934207Y-62196713D01*
X209633215Y-61930425D02*
X210165792Y-61930425D01*
X203221771Y-62163427D02*
X203321629Y-62196713D01*
X203488060Y-62196713D01*
X203554632Y-62163427D01*
X203587918Y-62130141D01*
X203621204Y-62063569D01*
X203621204Y-61996997D01*
X203587918Y-61930425D01*
X203554632Y-61897139D01*
X203488060Y-61863852D01*
X203354915Y-61830566D01*
X203288343Y-61797280D01*
X203255057Y-61763994D01*
X203221771Y-61697422D01*
X203221771Y-61630850D01*
X203255057Y-61564278D01*
X203288343Y-61530992D01*
X203354915Y-61497705D01*
X203521346Y-61497705D01*
X203621204Y-61530992D01*
X204153782Y-61830566D02*
X204253640Y-61863852D01*
X204286926Y-61897139D01*
X204320212Y-61963711D01*
X204320212Y-62063569D01*
X204286926Y-62130141D01*
X204253640Y-62163427D01*
X204187068Y-62196713D01*
X203920779Y-62196713D01*
X203920779Y-61497705D01*
X204153782Y-61497705D01*
X204220354Y-61530992D01*
X204253640Y-61564278D01*
X204286926Y-61630850D01*
X204286926Y-61697422D01*
X204253640Y-61763994D01*
X204220354Y-61797280D01*
X204153782Y-61830566D01*
X203920779Y-61830566D01*
X204619787Y-61497705D02*
X204619787Y-62063569D01*
X204653073Y-62130141D01*
X204686359Y-62163427D01*
X204752931Y-62196713D01*
X204886076Y-62196713D01*
X204952648Y-62163427D01*
X204985934Y-62130141D01*
X205019220Y-62063569D01*
X205019220Y-61497705D01*
X205718228Y-62196713D02*
X205318795Y-62196713D01*
X205518512Y-62196713D02*
X205518512Y-61497705D01*
X205451939Y-61597564D01*
X205385367Y-61664136D01*
X205318795Y-61697422D01*
X202479994Y-65369149D02*
X202446708Y-65402435D01*
X202346850Y-65435721D01*
X202280278Y-65435721D01*
X202180419Y-65402435D01*
X202113847Y-65335863D01*
X202080561Y-65269291D01*
X202047275Y-65136147D01*
X202047275Y-65036288D01*
X202080561Y-64903144D01*
X202113847Y-64836572D01*
X202180419Y-64770000D01*
X202280278Y-64736713D01*
X202346850Y-64736713D01*
X202446708Y-64770000D01*
X202479994Y-64803286D01*
X203179002Y-65369149D02*
X203145716Y-65402435D01*
X203045858Y-65435721D01*
X202979286Y-65435721D01*
X202879427Y-65402435D01*
X202812855Y-65335863D01*
X202779569Y-65269291D01*
X202746283Y-65136147D01*
X202746283Y-65036288D01*
X202779569Y-64903144D01*
X202812855Y-64836572D01*
X202879427Y-64770000D01*
X202979286Y-64736713D01*
X203045858Y-64736713D01*
X203145716Y-64770000D01*
X203179002Y-64803286D01*
X203445291Y-64803286D02*
X203478577Y-64770000D01*
X203545149Y-64736713D01*
X203711580Y-64736713D01*
X203778152Y-64770000D01*
X203811438Y-64803286D01*
X203844724Y-64869858D01*
X203844724Y-64936430D01*
X203811438Y-65036288D01*
X203412005Y-65435721D01*
X203844724Y-65435721D01*
D10*
%TO.C,U1*%
X161798095Y-57872380D02*
X161798095Y-58681904D01*
X161845714Y-58777142D01*
X161893333Y-58824761D01*
X161988571Y-58872380D01*
X162179047Y-58872380D01*
X162274285Y-58824761D01*
X162321904Y-58777142D01*
X162369523Y-58681904D01*
X162369523Y-57872380D01*
X163369523Y-58872380D02*
X162798095Y-58872380D01*
X163083809Y-58872380D02*
X163083809Y-57872380D01*
X162988571Y-58015238D01*
X162893333Y-58110476D01*
X162798095Y-58158095D01*
D11*
X163363994Y-65369149D02*
X163330708Y-65402435D01*
X163230850Y-65435721D01*
X163164278Y-65435721D01*
X163064419Y-65402435D01*
X162997847Y-65335863D01*
X162964561Y-65269291D01*
X162931275Y-65136147D01*
X162931275Y-65036288D01*
X162964561Y-64903144D01*
X162997847Y-64836572D01*
X163064419Y-64770000D01*
X163164278Y-64736713D01*
X163230850Y-64736713D01*
X163330708Y-64770000D01*
X163363994Y-64803286D01*
X164063002Y-65369149D02*
X164029716Y-65402435D01*
X163929858Y-65435721D01*
X163863286Y-65435721D01*
X163763427Y-65402435D01*
X163696855Y-65335863D01*
X163663569Y-65269291D01*
X163630283Y-65136147D01*
X163630283Y-65036288D01*
X163663569Y-64903144D01*
X163696855Y-64836572D01*
X163763427Y-64770000D01*
X163863286Y-64736713D01*
X163929858Y-64736713D01*
X164029716Y-64770000D01*
X164063002Y-64803286D01*
X164728724Y-65435721D02*
X164329291Y-65435721D01*
X164529008Y-65435721D02*
X164529008Y-64736713D01*
X164462435Y-64836572D01*
X164395863Y-64903144D01*
X164329291Y-64936430D01*
X158134207Y-65435721D02*
X158134207Y-64736713D01*
X158300637Y-64736713D01*
X158400496Y-64770000D01*
X158467068Y-64836572D01*
X158500354Y-64903144D01*
X158533640Y-65036288D01*
X158533640Y-65136147D01*
X158500354Y-65269291D01*
X158467068Y-65335863D01*
X158400496Y-65402435D01*
X158300637Y-65435721D01*
X158134207Y-65435721D01*
X158833215Y-65169433D02*
X159365792Y-65169433D01*
X159099504Y-65435721D02*
X159099504Y-64903144D01*
X167628485Y-64736713D02*
X167861488Y-65435721D01*
X168094490Y-64736713D01*
X168560496Y-65069574D02*
X168660354Y-65102860D01*
X168693640Y-65136147D01*
X168726926Y-65202719D01*
X168726926Y-65302577D01*
X168693640Y-65369149D01*
X168660354Y-65402435D01*
X168593782Y-65435721D01*
X168327493Y-65435721D01*
X168327493Y-64736713D01*
X168560496Y-64736713D01*
X168627068Y-64770000D01*
X168660354Y-64803286D01*
X168693640Y-64869858D01*
X168693640Y-64936430D01*
X168660354Y-65003002D01*
X168627068Y-65036288D01*
X168560496Y-65069574D01*
X168327493Y-65069574D01*
X169026501Y-64736713D02*
X169026501Y-65302577D01*
X169059787Y-65369149D01*
X169093073Y-65402435D01*
X169159645Y-65435721D01*
X169292790Y-65435721D01*
X169359362Y-65402435D01*
X169392648Y-65369149D01*
X169425934Y-65302577D01*
X169425934Y-64736713D01*
X169725509Y-65402435D02*
X169825367Y-65435721D01*
X169991798Y-65435721D01*
X170058370Y-65402435D01*
X170091656Y-65369149D01*
X170124942Y-65302577D01*
X170124942Y-65236005D01*
X170091656Y-65169433D01*
X170058370Y-65136147D01*
X169991798Y-65102860D01*
X169858653Y-65069574D01*
X169792081Y-65036288D01*
X169758795Y-65003002D01*
X169725509Y-64936430D01*
X169725509Y-64869858D01*
X169758795Y-64803286D01*
X169792081Y-64770000D01*
X169858653Y-64736713D01*
X170025084Y-64736713D01*
X170124942Y-64770000D01*
X165121771Y-62163427D02*
X165221629Y-62196713D01*
X165388060Y-62196713D01*
X165454632Y-62163427D01*
X165487918Y-62130141D01*
X165521204Y-62063569D01*
X165521204Y-61996997D01*
X165487918Y-61930425D01*
X165454632Y-61897139D01*
X165388060Y-61863852D01*
X165254915Y-61830566D01*
X165188343Y-61797280D01*
X165155057Y-61763994D01*
X165121771Y-61697422D01*
X165121771Y-61630850D01*
X165155057Y-61564278D01*
X165188343Y-61530992D01*
X165254915Y-61497705D01*
X165421346Y-61497705D01*
X165521204Y-61530992D01*
X166053782Y-61830566D02*
X166153640Y-61863852D01*
X166186926Y-61897139D01*
X166220212Y-61963711D01*
X166220212Y-62063569D01*
X166186926Y-62130141D01*
X166153640Y-62163427D01*
X166087068Y-62196713D01*
X165820779Y-62196713D01*
X165820779Y-61497705D01*
X166053782Y-61497705D01*
X166120354Y-61530992D01*
X166153640Y-61564278D01*
X166186926Y-61630850D01*
X166186926Y-61697422D01*
X166153640Y-61763994D01*
X166120354Y-61797280D01*
X166053782Y-61830566D01*
X165820779Y-61830566D01*
X166519787Y-61497705D02*
X166519787Y-62063569D01*
X166553073Y-62130141D01*
X166586359Y-62163427D01*
X166652931Y-62196713D01*
X166786076Y-62196713D01*
X166852648Y-62163427D01*
X166885934Y-62130141D01*
X166919220Y-62063569D01*
X166919220Y-61497705D01*
X167218795Y-61564278D02*
X167252081Y-61530992D01*
X167318653Y-61497705D01*
X167485084Y-61497705D01*
X167551656Y-61530992D01*
X167584942Y-61564278D01*
X167618228Y-61630850D01*
X167618228Y-61697422D01*
X167584942Y-61797280D01*
X167185509Y-62196713D01*
X167618228Y-62196713D01*
X170663422Y-61530992D02*
X170596850Y-61497705D01*
X170496992Y-61497705D01*
X170397133Y-61530992D01*
X170330561Y-61597564D01*
X170297275Y-61664136D01*
X170263989Y-61797280D01*
X170263989Y-61897139D01*
X170297275Y-62030283D01*
X170330561Y-62096855D01*
X170397133Y-62163427D01*
X170496992Y-62196713D01*
X170563564Y-62196713D01*
X170663422Y-62163427D01*
X170696708Y-62130141D01*
X170696708Y-61897139D01*
X170563564Y-61897139D01*
X170996283Y-62196713D02*
X170996283Y-61497705D01*
X171395716Y-62196713D01*
X171395716Y-61497705D01*
X171728577Y-62196713D02*
X171728577Y-61497705D01*
X171895008Y-61497705D01*
X171994866Y-61530992D01*
X172061438Y-61597564D01*
X172094724Y-61664136D01*
X172128010Y-61797280D01*
X172128010Y-61897139D01*
X172094724Y-62030283D01*
X172061438Y-62096855D01*
X171994866Y-62163427D01*
X171895008Y-62196713D01*
X171728577Y-62196713D01*
D12*
X160687657Y-53298392D02*
X160687657Y-54005721D01*
X160729264Y-54088937D01*
X160770872Y-54130544D01*
X160854087Y-54172152D01*
X161020518Y-54172152D01*
X161103733Y-54130544D01*
X161145340Y-54088937D01*
X161186948Y-54005721D01*
X161186948Y-53298392D01*
X161561417Y-54130544D02*
X161686240Y-54172152D01*
X161894278Y-54172152D01*
X161977493Y-54130544D01*
X162019100Y-54088937D01*
X162060708Y-54005721D01*
X162060708Y-53922506D01*
X162019100Y-53839291D01*
X161977493Y-53797683D01*
X161894278Y-53756076D01*
X161727847Y-53714468D01*
X161644632Y-53672860D01*
X161603024Y-53631253D01*
X161561417Y-53548038D01*
X161561417Y-53464822D01*
X161603024Y-53381607D01*
X161644632Y-53340000D01*
X161727847Y-53298392D01*
X161935885Y-53298392D01*
X162060708Y-53340000D01*
X162726430Y-53714468D02*
X162851253Y-53756076D01*
X162892860Y-53797683D01*
X162934468Y-53880899D01*
X162934468Y-54005721D01*
X162892860Y-54088937D01*
X162851253Y-54130544D01*
X162768038Y-54172152D01*
X162435177Y-54172152D01*
X162435177Y-53298392D01*
X162726430Y-53298392D01*
X162809645Y-53340000D01*
X162851253Y-53381607D01*
X162892860Y-53464822D01*
X162892860Y-53548038D01*
X162851253Y-53631253D01*
X162809645Y-53672860D01*
X162726430Y-53714468D01*
X162435177Y-53714468D01*
X164473950Y-54088937D02*
X164432342Y-54130544D01*
X164307520Y-54172152D01*
X164224304Y-54172152D01*
X164099481Y-54130544D01*
X164016266Y-54047329D01*
X163974659Y-53964114D01*
X163933051Y-53797683D01*
X163933051Y-53672860D01*
X163974659Y-53506430D01*
X164016266Y-53423215D01*
X164099481Y-53340000D01*
X164224304Y-53298392D01*
X164307520Y-53298392D01*
X164432342Y-53340000D01*
X164473950Y-53381607D01*
D11*
X160674207Y-62196713D02*
X160674207Y-61497705D01*
X160840637Y-61497705D01*
X160940496Y-61530992D01*
X161007068Y-61597564D01*
X161040354Y-61664136D01*
X161073640Y-61797280D01*
X161073640Y-61897139D01*
X161040354Y-62030283D01*
X161007068Y-62096855D01*
X160940496Y-62163427D01*
X160840637Y-62196713D01*
X160674207Y-62196713D01*
X161373215Y-61930425D02*
X161905792Y-61930425D01*
X154961771Y-62163427D02*
X155061629Y-62196713D01*
X155228060Y-62196713D01*
X155294632Y-62163427D01*
X155327918Y-62130141D01*
X155361204Y-62063569D01*
X155361204Y-61996997D01*
X155327918Y-61930425D01*
X155294632Y-61897139D01*
X155228060Y-61863852D01*
X155094915Y-61830566D01*
X155028343Y-61797280D01*
X154995057Y-61763994D01*
X154961771Y-61697422D01*
X154961771Y-61630850D01*
X154995057Y-61564278D01*
X155028343Y-61530992D01*
X155094915Y-61497705D01*
X155261346Y-61497705D01*
X155361204Y-61530992D01*
X155893782Y-61830566D02*
X155993640Y-61863852D01*
X156026926Y-61897139D01*
X156060212Y-61963711D01*
X156060212Y-62063569D01*
X156026926Y-62130141D01*
X155993640Y-62163427D01*
X155927068Y-62196713D01*
X155660779Y-62196713D01*
X155660779Y-61497705D01*
X155893782Y-61497705D01*
X155960354Y-61530992D01*
X155993640Y-61564278D01*
X156026926Y-61630850D01*
X156026926Y-61697422D01*
X155993640Y-61763994D01*
X155960354Y-61797280D01*
X155893782Y-61830566D01*
X155660779Y-61830566D01*
X156359787Y-61497705D02*
X156359787Y-62063569D01*
X156393073Y-62130141D01*
X156426359Y-62163427D01*
X156492931Y-62196713D01*
X156626076Y-62196713D01*
X156692648Y-62163427D01*
X156725934Y-62130141D01*
X156759220Y-62063569D01*
X156759220Y-61497705D01*
X157458228Y-62196713D02*
X157058795Y-62196713D01*
X157258512Y-62196713D02*
X157258512Y-61497705D01*
X157191939Y-61597564D01*
X157125367Y-61664136D01*
X157058795Y-61697422D01*
X154219994Y-65369149D02*
X154186708Y-65402435D01*
X154086850Y-65435721D01*
X154020278Y-65435721D01*
X153920419Y-65402435D01*
X153853847Y-65335863D01*
X153820561Y-65269291D01*
X153787275Y-65136147D01*
X153787275Y-65036288D01*
X153820561Y-64903144D01*
X153853847Y-64836572D01*
X153920419Y-64770000D01*
X154020278Y-64736713D01*
X154086850Y-64736713D01*
X154186708Y-64770000D01*
X154219994Y-64803286D01*
X154919002Y-65369149D02*
X154885716Y-65402435D01*
X154785858Y-65435721D01*
X154719286Y-65435721D01*
X154619427Y-65402435D01*
X154552855Y-65335863D01*
X154519569Y-65269291D01*
X154486283Y-65136147D01*
X154486283Y-65036288D01*
X154519569Y-64903144D01*
X154552855Y-64836572D01*
X154619427Y-64770000D01*
X154719286Y-64736713D01*
X154785858Y-64736713D01*
X154885716Y-64770000D01*
X154919002Y-64803286D01*
X155185291Y-64803286D02*
X155218577Y-64770000D01*
X155285149Y-64736713D01*
X155451580Y-64736713D01*
X155518152Y-64770000D01*
X155551438Y-64803286D01*
X155584724Y-64869858D01*
X155584724Y-64936430D01*
X155551438Y-65036288D01*
X155152005Y-65435721D01*
X155584724Y-65435721D01*
D10*
%TO.C,U2*%
X184658095Y-57872380D02*
X184658095Y-58681904D01*
X184705714Y-58777142D01*
X184753333Y-58824761D01*
X184848571Y-58872380D01*
X185039047Y-58872380D01*
X185134285Y-58824761D01*
X185181904Y-58777142D01*
X185229523Y-58681904D01*
X185229523Y-57872380D01*
X185658095Y-57967619D02*
X185705714Y-57920000D01*
X185800952Y-57872380D01*
X186039047Y-57872380D01*
X186134285Y-57920000D01*
X186181904Y-57967619D01*
X186229523Y-58062857D01*
X186229523Y-58158095D01*
X186181904Y-58300952D01*
X185610476Y-58872380D01*
X186229523Y-58872380D01*
D11*
X186223994Y-65369149D02*
X186190708Y-65402435D01*
X186090850Y-65435721D01*
X186024278Y-65435721D01*
X185924419Y-65402435D01*
X185857847Y-65335863D01*
X185824561Y-65269291D01*
X185791275Y-65136147D01*
X185791275Y-65036288D01*
X185824561Y-64903144D01*
X185857847Y-64836572D01*
X185924419Y-64770000D01*
X186024278Y-64736713D01*
X186090850Y-64736713D01*
X186190708Y-64770000D01*
X186223994Y-64803286D01*
X186923002Y-65369149D02*
X186889716Y-65402435D01*
X186789858Y-65435721D01*
X186723286Y-65435721D01*
X186623427Y-65402435D01*
X186556855Y-65335863D01*
X186523569Y-65269291D01*
X186490283Y-65136147D01*
X186490283Y-65036288D01*
X186523569Y-64903144D01*
X186556855Y-64836572D01*
X186623427Y-64770000D01*
X186723286Y-64736713D01*
X186789858Y-64736713D01*
X186889716Y-64770000D01*
X186923002Y-64803286D01*
X187588724Y-65435721D02*
X187189291Y-65435721D01*
X187389008Y-65435721D02*
X187389008Y-64736713D01*
X187322435Y-64836572D01*
X187255863Y-64903144D01*
X187189291Y-64936430D01*
X180994207Y-65435721D02*
X180994207Y-64736713D01*
X181160637Y-64736713D01*
X181260496Y-64770000D01*
X181327068Y-64836572D01*
X181360354Y-64903144D01*
X181393640Y-65036288D01*
X181393640Y-65136147D01*
X181360354Y-65269291D01*
X181327068Y-65335863D01*
X181260496Y-65402435D01*
X181160637Y-65435721D01*
X180994207Y-65435721D01*
X181693215Y-65169433D02*
X182225792Y-65169433D01*
X181959504Y-65435721D02*
X181959504Y-64903144D01*
X190488485Y-64736713D02*
X190721488Y-65435721D01*
X190954490Y-64736713D01*
X191420496Y-65069574D02*
X191520354Y-65102860D01*
X191553640Y-65136147D01*
X191586926Y-65202719D01*
X191586926Y-65302577D01*
X191553640Y-65369149D01*
X191520354Y-65402435D01*
X191453782Y-65435721D01*
X191187493Y-65435721D01*
X191187493Y-64736713D01*
X191420496Y-64736713D01*
X191487068Y-64770000D01*
X191520354Y-64803286D01*
X191553640Y-64869858D01*
X191553640Y-64936430D01*
X191520354Y-65003002D01*
X191487068Y-65036288D01*
X191420496Y-65069574D01*
X191187493Y-65069574D01*
X191886501Y-64736713D02*
X191886501Y-65302577D01*
X191919787Y-65369149D01*
X191953073Y-65402435D01*
X192019645Y-65435721D01*
X192152790Y-65435721D01*
X192219362Y-65402435D01*
X192252648Y-65369149D01*
X192285934Y-65302577D01*
X192285934Y-64736713D01*
X192585509Y-65402435D02*
X192685367Y-65435721D01*
X192851798Y-65435721D01*
X192918370Y-65402435D01*
X192951656Y-65369149D01*
X192984942Y-65302577D01*
X192984942Y-65236005D01*
X192951656Y-65169433D01*
X192918370Y-65136147D01*
X192851798Y-65102860D01*
X192718653Y-65069574D01*
X192652081Y-65036288D01*
X192618795Y-65003002D01*
X192585509Y-64936430D01*
X192585509Y-64869858D01*
X192618795Y-64803286D01*
X192652081Y-64770000D01*
X192718653Y-64736713D01*
X192885084Y-64736713D01*
X192984942Y-64770000D01*
X187981771Y-62163427D02*
X188081629Y-62196713D01*
X188248060Y-62196713D01*
X188314632Y-62163427D01*
X188347918Y-62130141D01*
X188381204Y-62063569D01*
X188381204Y-61996997D01*
X188347918Y-61930425D01*
X188314632Y-61897139D01*
X188248060Y-61863852D01*
X188114915Y-61830566D01*
X188048343Y-61797280D01*
X188015057Y-61763994D01*
X187981771Y-61697422D01*
X187981771Y-61630850D01*
X188015057Y-61564278D01*
X188048343Y-61530992D01*
X188114915Y-61497705D01*
X188281346Y-61497705D01*
X188381204Y-61530992D01*
X188913782Y-61830566D02*
X189013640Y-61863852D01*
X189046926Y-61897139D01*
X189080212Y-61963711D01*
X189080212Y-62063569D01*
X189046926Y-62130141D01*
X189013640Y-62163427D01*
X188947068Y-62196713D01*
X188680779Y-62196713D01*
X188680779Y-61497705D01*
X188913782Y-61497705D01*
X188980354Y-61530992D01*
X189013640Y-61564278D01*
X189046926Y-61630850D01*
X189046926Y-61697422D01*
X189013640Y-61763994D01*
X188980354Y-61797280D01*
X188913782Y-61830566D01*
X188680779Y-61830566D01*
X189379787Y-61497705D02*
X189379787Y-62063569D01*
X189413073Y-62130141D01*
X189446359Y-62163427D01*
X189512931Y-62196713D01*
X189646076Y-62196713D01*
X189712648Y-62163427D01*
X189745934Y-62130141D01*
X189779220Y-62063569D01*
X189779220Y-61497705D01*
X190078795Y-61564278D02*
X190112081Y-61530992D01*
X190178653Y-61497705D01*
X190345084Y-61497705D01*
X190411656Y-61530992D01*
X190444942Y-61564278D01*
X190478228Y-61630850D01*
X190478228Y-61697422D01*
X190444942Y-61797280D01*
X190045509Y-62196713D01*
X190478228Y-62196713D01*
X193523422Y-61530992D02*
X193456850Y-61497705D01*
X193356992Y-61497705D01*
X193257133Y-61530992D01*
X193190561Y-61597564D01*
X193157275Y-61664136D01*
X193123989Y-61797280D01*
X193123989Y-61897139D01*
X193157275Y-62030283D01*
X193190561Y-62096855D01*
X193257133Y-62163427D01*
X193356992Y-62196713D01*
X193423564Y-62196713D01*
X193523422Y-62163427D01*
X193556708Y-62130141D01*
X193556708Y-61897139D01*
X193423564Y-61897139D01*
X193856283Y-62196713D02*
X193856283Y-61497705D01*
X194255716Y-62196713D01*
X194255716Y-61497705D01*
X194588577Y-62196713D02*
X194588577Y-61497705D01*
X194755008Y-61497705D01*
X194854866Y-61530992D01*
X194921438Y-61597564D01*
X194954724Y-61664136D01*
X194988010Y-61797280D01*
X194988010Y-61897139D01*
X194954724Y-62030283D01*
X194921438Y-62096855D01*
X194854866Y-62163427D01*
X194755008Y-62196713D01*
X194588577Y-62196713D01*
D12*
X183547657Y-53298392D02*
X183547657Y-54005721D01*
X183589264Y-54088937D01*
X183630872Y-54130544D01*
X183714087Y-54172152D01*
X183880518Y-54172152D01*
X183963733Y-54130544D01*
X184005340Y-54088937D01*
X184046948Y-54005721D01*
X184046948Y-53298392D01*
X184421417Y-54130544D02*
X184546240Y-54172152D01*
X184754278Y-54172152D01*
X184837493Y-54130544D01*
X184879100Y-54088937D01*
X184920708Y-54005721D01*
X184920708Y-53922506D01*
X184879100Y-53839291D01*
X184837493Y-53797683D01*
X184754278Y-53756076D01*
X184587847Y-53714468D01*
X184504632Y-53672860D01*
X184463024Y-53631253D01*
X184421417Y-53548038D01*
X184421417Y-53464822D01*
X184463024Y-53381607D01*
X184504632Y-53340000D01*
X184587847Y-53298392D01*
X184795885Y-53298392D01*
X184920708Y-53340000D01*
X185586430Y-53714468D02*
X185711253Y-53756076D01*
X185752860Y-53797683D01*
X185794468Y-53880899D01*
X185794468Y-54005721D01*
X185752860Y-54088937D01*
X185711253Y-54130544D01*
X185628038Y-54172152D01*
X185295177Y-54172152D01*
X185295177Y-53298392D01*
X185586430Y-53298392D01*
X185669645Y-53340000D01*
X185711253Y-53381607D01*
X185752860Y-53464822D01*
X185752860Y-53548038D01*
X185711253Y-53631253D01*
X185669645Y-53672860D01*
X185586430Y-53714468D01*
X185295177Y-53714468D01*
X187333950Y-54088937D02*
X187292342Y-54130544D01*
X187167520Y-54172152D01*
X187084304Y-54172152D01*
X186959481Y-54130544D01*
X186876266Y-54047329D01*
X186834659Y-53964114D01*
X186793051Y-53797683D01*
X186793051Y-53672860D01*
X186834659Y-53506430D01*
X186876266Y-53423215D01*
X186959481Y-53340000D01*
X187084304Y-53298392D01*
X187167520Y-53298392D01*
X187292342Y-53340000D01*
X187333950Y-53381607D01*
D11*
X183534207Y-62196713D02*
X183534207Y-61497705D01*
X183700637Y-61497705D01*
X183800496Y-61530992D01*
X183867068Y-61597564D01*
X183900354Y-61664136D01*
X183933640Y-61797280D01*
X183933640Y-61897139D01*
X183900354Y-62030283D01*
X183867068Y-62096855D01*
X183800496Y-62163427D01*
X183700637Y-62196713D01*
X183534207Y-62196713D01*
X184233215Y-61930425D02*
X184765792Y-61930425D01*
X177821771Y-62163427D02*
X177921629Y-62196713D01*
X178088060Y-62196713D01*
X178154632Y-62163427D01*
X178187918Y-62130141D01*
X178221204Y-62063569D01*
X178221204Y-61996997D01*
X178187918Y-61930425D01*
X178154632Y-61897139D01*
X178088060Y-61863852D01*
X177954915Y-61830566D01*
X177888343Y-61797280D01*
X177855057Y-61763994D01*
X177821771Y-61697422D01*
X177821771Y-61630850D01*
X177855057Y-61564278D01*
X177888343Y-61530992D01*
X177954915Y-61497705D01*
X178121346Y-61497705D01*
X178221204Y-61530992D01*
X178753782Y-61830566D02*
X178853640Y-61863852D01*
X178886926Y-61897139D01*
X178920212Y-61963711D01*
X178920212Y-62063569D01*
X178886926Y-62130141D01*
X178853640Y-62163427D01*
X178787068Y-62196713D01*
X178520779Y-62196713D01*
X178520779Y-61497705D01*
X178753782Y-61497705D01*
X178820354Y-61530992D01*
X178853640Y-61564278D01*
X178886926Y-61630850D01*
X178886926Y-61697422D01*
X178853640Y-61763994D01*
X178820354Y-61797280D01*
X178753782Y-61830566D01*
X178520779Y-61830566D01*
X179219787Y-61497705D02*
X179219787Y-62063569D01*
X179253073Y-62130141D01*
X179286359Y-62163427D01*
X179352931Y-62196713D01*
X179486076Y-62196713D01*
X179552648Y-62163427D01*
X179585934Y-62130141D01*
X179619220Y-62063569D01*
X179619220Y-61497705D01*
X180318228Y-62196713D02*
X179918795Y-62196713D01*
X180118512Y-62196713D02*
X180118512Y-61497705D01*
X180051939Y-61597564D01*
X179985367Y-61664136D01*
X179918795Y-61697422D01*
X177079994Y-65369149D02*
X177046708Y-65402435D01*
X176946850Y-65435721D01*
X176880278Y-65435721D01*
X176780419Y-65402435D01*
X176713847Y-65335863D01*
X176680561Y-65269291D01*
X176647275Y-65136147D01*
X176647275Y-65036288D01*
X176680561Y-64903144D01*
X176713847Y-64836572D01*
X176780419Y-64770000D01*
X176880278Y-64736713D01*
X176946850Y-64736713D01*
X177046708Y-64770000D01*
X177079994Y-64803286D01*
X177779002Y-65369149D02*
X177745716Y-65402435D01*
X177645858Y-65435721D01*
X177579286Y-65435721D01*
X177479427Y-65402435D01*
X177412855Y-65335863D01*
X177379569Y-65269291D01*
X177346283Y-65136147D01*
X177346283Y-65036288D01*
X177379569Y-64903144D01*
X177412855Y-64836572D01*
X177479427Y-64770000D01*
X177579286Y-64736713D01*
X177645858Y-64736713D01*
X177745716Y-64770000D01*
X177779002Y-64803286D01*
X178045291Y-64803286D02*
X178078577Y-64770000D01*
X178145149Y-64736713D01*
X178311580Y-64736713D01*
X178378152Y-64770000D01*
X178411438Y-64803286D01*
X178444724Y-64869858D01*
X178444724Y-64936430D01*
X178411438Y-65036288D01*
X178012005Y-65435721D01*
X178444724Y-65435721D01*
D10*
%TO.C,D1*%
X191014880Y-93803095D02*
X190014880Y-93803095D01*
X190014880Y-93565000D01*
X190062500Y-93422142D01*
X190157738Y-93326904D01*
X190252976Y-93279285D01*
X190443452Y-93231666D01*
X190586309Y-93231666D01*
X190776785Y-93279285D01*
X190872023Y-93326904D01*
X190967261Y-93422142D01*
X191014880Y-93565000D01*
X191014880Y-93803095D01*
X191014880Y-92279285D02*
X191014880Y-92850714D01*
X191014880Y-92565000D02*
X190014880Y-92565000D01*
X190157738Y-92660238D01*
X190252976Y-92755476D01*
X190300595Y-92850714D01*
X190644880Y-88246904D02*
X189644880Y-88246904D01*
X190644880Y-87675476D02*
X190073452Y-88104047D01*
X189644880Y-87675476D02*
X190216309Y-88246904D01*
%TO.C,K2*%
X182181904Y-86684880D02*
X182181904Y-85684880D01*
X182753333Y-86684880D02*
X182324761Y-86113452D01*
X182753333Y-85684880D02*
X182181904Y-86256309D01*
X183134285Y-85780119D02*
X183181904Y-85732500D01*
X183277142Y-85684880D01*
X183515238Y-85684880D01*
X183610476Y-85732500D01*
X183658095Y-85780119D01*
X183705714Y-85875357D01*
X183705714Y-85970595D01*
X183658095Y-86113452D01*
X183086666Y-86684880D01*
X183705714Y-86684880D01*
%TO.C,K1*%
X194881904Y-86684880D02*
X194881904Y-85684880D01*
X195453333Y-86684880D02*
X195024761Y-86113452D01*
X195453333Y-85684880D02*
X194881904Y-86256309D01*
X196405714Y-86684880D02*
X195834285Y-86684880D01*
X196120000Y-86684880D02*
X196120000Y-85684880D01*
X196024761Y-85827738D01*
X195929523Y-85922976D01*
X195834285Y-85970595D01*
%TO.C,R3*%
X181735833Y-92897380D02*
X181402500Y-92421190D01*
X181164404Y-92897380D02*
X181164404Y-91897380D01*
X181545357Y-91897380D01*
X181640595Y-91945000D01*
X181688214Y-91992619D01*
X181735833Y-92087857D01*
X181735833Y-92230714D01*
X181688214Y-92325952D01*
X181640595Y-92373571D01*
X181545357Y-92421190D01*
X181164404Y-92421190D01*
X182069166Y-91897380D02*
X182688214Y-91897380D01*
X182354880Y-92278333D01*
X182497738Y-92278333D01*
X182592976Y-92325952D01*
X182640595Y-92373571D01*
X182688214Y-92468809D01*
X182688214Y-92706904D01*
X182640595Y-92802142D01*
X182592976Y-92849761D01*
X182497738Y-92897380D01*
X182212023Y-92897380D01*
X182116785Y-92849761D01*
X182069166Y-92802142D01*
%TO.C,Q2*%
X177997261Y-99712619D02*
X177902023Y-99665000D01*
X177806785Y-99569761D01*
X177663928Y-99426904D01*
X177568690Y-99379285D01*
X177473452Y-99379285D01*
X177521071Y-99617380D02*
X177425833Y-99569761D01*
X177330595Y-99474523D01*
X177282976Y-99284047D01*
X177282976Y-98950714D01*
X177330595Y-98760238D01*
X177425833Y-98665000D01*
X177521071Y-98617380D01*
X177711547Y-98617380D01*
X177806785Y-98665000D01*
X177902023Y-98760238D01*
X177949642Y-98950714D01*
X177949642Y-99284047D01*
X177902023Y-99474523D01*
X177806785Y-99569761D01*
X177711547Y-99617380D01*
X177521071Y-99617380D01*
X178330595Y-98712619D02*
X178378214Y-98665000D01*
X178473452Y-98617380D01*
X178711547Y-98617380D01*
X178806785Y-98665000D01*
X178854404Y-98712619D01*
X178902023Y-98807857D01*
X178902023Y-98903095D01*
X178854404Y-99045952D01*
X178282976Y-99617380D01*
X178902023Y-99617380D01*
%TO.C,R4*%
X174115833Y-92897380D02*
X173782500Y-92421190D01*
X173544404Y-92897380D02*
X173544404Y-91897380D01*
X173925357Y-91897380D01*
X174020595Y-91945000D01*
X174068214Y-91992619D01*
X174115833Y-92087857D01*
X174115833Y-92230714D01*
X174068214Y-92325952D01*
X174020595Y-92373571D01*
X173925357Y-92421190D01*
X173544404Y-92421190D01*
X174972976Y-92230714D02*
X174972976Y-92897380D01*
X174734880Y-91849761D02*
X174496785Y-92564047D01*
X175115833Y-92564047D01*
%TO.C,SW1*%
X145986666Y-99464761D02*
X146129523Y-99512380D01*
X146367619Y-99512380D01*
X146462857Y-99464761D01*
X146510476Y-99417142D01*
X146558095Y-99321904D01*
X146558095Y-99226666D01*
X146510476Y-99131428D01*
X146462857Y-99083809D01*
X146367619Y-99036190D01*
X146177142Y-98988571D01*
X146081904Y-98940952D01*
X146034285Y-98893333D01*
X145986666Y-98798095D01*
X145986666Y-98702857D01*
X146034285Y-98607619D01*
X146081904Y-98560000D01*
X146177142Y-98512380D01*
X146415238Y-98512380D01*
X146558095Y-98560000D01*
X146891428Y-98512380D02*
X147129523Y-99512380D01*
X147320000Y-98798095D01*
X147510476Y-99512380D01*
X147748571Y-98512380D01*
X148653333Y-99512380D02*
X148081904Y-99512380D01*
X148367619Y-99512380D02*
X148367619Y-98512380D01*
X148272380Y-98655238D01*
X148177142Y-98750476D01*
X148081904Y-98798095D01*
%TO.C,R1*%
X203165833Y-92897380D02*
X202832500Y-92421190D01*
X202594404Y-92897380D02*
X202594404Y-91897380D01*
X202975357Y-91897380D01*
X203070595Y-91945000D01*
X203118214Y-91992619D01*
X203165833Y-92087857D01*
X203165833Y-92230714D01*
X203118214Y-92325952D01*
X203070595Y-92373571D01*
X202975357Y-92421190D01*
X202594404Y-92421190D01*
X204118214Y-92897380D02*
X203546785Y-92897380D01*
X203832500Y-92897380D02*
X203832500Y-91897380D01*
X203737261Y-92040238D01*
X203642023Y-92135476D01*
X203546785Y-92183095D01*
%TO.C,Q1*%
X199427261Y-99712619D02*
X199332023Y-99665000D01*
X199236785Y-99569761D01*
X199093928Y-99426904D01*
X198998690Y-99379285D01*
X198903452Y-99379285D01*
X198951071Y-99617380D02*
X198855833Y-99569761D01*
X198760595Y-99474523D01*
X198712976Y-99284047D01*
X198712976Y-98950714D01*
X198760595Y-98760238D01*
X198855833Y-98665000D01*
X198951071Y-98617380D01*
X199141547Y-98617380D01*
X199236785Y-98665000D01*
X199332023Y-98760238D01*
X199379642Y-98950714D01*
X199379642Y-99284047D01*
X199332023Y-99474523D01*
X199236785Y-99569761D01*
X199141547Y-99617380D01*
X198951071Y-99617380D01*
X200332023Y-99617380D02*
X199760595Y-99617380D01*
X200046309Y-99617380D02*
X200046309Y-98617380D01*
X199951071Y-98760238D01*
X199855833Y-98855476D01*
X199760595Y-98903095D01*
%TO.C,D2*%
X170694880Y-93803095D02*
X169694880Y-93803095D01*
X169694880Y-93565000D01*
X169742500Y-93422142D01*
X169837738Y-93326904D01*
X169932976Y-93279285D01*
X170123452Y-93231666D01*
X170266309Y-93231666D01*
X170456785Y-93279285D01*
X170552023Y-93326904D01*
X170647261Y-93422142D01*
X170694880Y-93565000D01*
X170694880Y-93803095D01*
X169790119Y-92850714D02*
X169742500Y-92803095D01*
X169694880Y-92707857D01*
X169694880Y-92469761D01*
X169742500Y-92374523D01*
X169790119Y-92326904D01*
X169885357Y-92279285D01*
X169980595Y-92279285D01*
X170123452Y-92326904D01*
X170694880Y-92898333D01*
X170694880Y-92279285D01*
X170324880Y-88246904D02*
X169324880Y-88246904D01*
X170324880Y-87675476D02*
X169753452Y-88104047D01*
X169324880Y-87675476D02*
X169896309Y-88246904D01*
%TO.C,R2*%
X194905833Y-92897380D02*
X194572500Y-92421190D01*
X194334404Y-92897380D02*
X194334404Y-91897380D01*
X194715357Y-91897380D01*
X194810595Y-91945000D01*
X194858214Y-91992619D01*
X194905833Y-92087857D01*
X194905833Y-92230714D01*
X194858214Y-92325952D01*
X194810595Y-92373571D01*
X194715357Y-92421190D01*
X194334404Y-92421190D01*
X195286785Y-91992619D02*
X195334404Y-91945000D01*
X195429642Y-91897380D01*
X195667738Y-91897380D01*
X195762976Y-91945000D01*
X195810595Y-91992619D01*
X195858214Y-92087857D01*
X195858214Y-92183095D01*
X195810595Y-92325952D01*
X195239166Y-92897380D01*
X195858214Y-92897380D01*
D13*
%TO.C,A2*%
X141187500Y-54610000D02*
X141187500Y-100330000D01*
X118107500Y-54610000D02*
X118107500Y-100330000D01*
X138537500Y-102980000D02*
X120757500Y-102980000D01*
X117787500Y-59420000D02*
X117787500Y-57420000D01*
X138537500Y-51960000D02*
X120757500Y-51960000D01*
X118107500Y-100330000D02*
G75*
G03*
X120757500Y-102980000I2650000J0D01*
G01*
X120757500Y-51960000D02*
G75*
G03*
X118107500Y-54610000I0J-2650000D01*
G01*
X141187500Y-54610000D02*
G75*
G03*
X138537500Y-51960000I-2650000J0D01*
G01*
X138537500Y-102980000D02*
G75*
G03*
X141187500Y-100330000I0J2650000D01*
G01*
%TO.C,A1*%
X113140000Y-54610000D02*
X113140000Y-100330000D01*
X90060000Y-54610000D02*
X90060000Y-100330000D01*
X110490000Y-102980000D02*
X92710000Y-102980000D01*
X89740000Y-59420000D02*
X89740000Y-57420000D01*
X110490000Y-51960000D02*
X92710000Y-51960000D01*
X90060000Y-100330000D02*
G75*
G03*
X92710000Y-102980000I2650000J0D01*
G01*
X92710000Y-51960000D02*
G75*
G03*
X90060000Y-54610000I0J-2650000D01*
G01*
X113140000Y-54610000D02*
G75*
G03*
X110490000Y-51960000I-2650000J0D01*
G01*
X110490000Y-102980000D02*
G75*
G03*
X113140000Y-100330000I0J2650000D01*
G01*
%TO.C,SW3*%
X149860000Y-55880000D02*
G75*
G03*
X149860000Y-55880000I-2540000J0D01*
G01*
X143510000Y-52070000D02*
X151130000Y-52070000D01*
X143510000Y-52070000D02*
X143510000Y-52370000D01*
X151130000Y-52070000D02*
X151130000Y-52370000D01*
X151130000Y-59690000D02*
X143510000Y-59690000D01*
X151130000Y-59390000D02*
X151130000Y-59690000D01*
X151130000Y-54310000D02*
X151130000Y-57450000D01*
X143510000Y-54310000D02*
X143510000Y-57450000D01*
X143510000Y-59390000D02*
X143510000Y-59690000D01*
%TO.C,SW2*%
X149860000Y-66040000D02*
G75*
G03*
X149860000Y-66040000I-2540000J0D01*
G01*
X143510000Y-62230000D02*
X151130000Y-62230000D01*
X143510000Y-62230000D02*
X143510000Y-62530000D01*
X151130000Y-62230000D02*
X151130000Y-62530000D01*
X151130000Y-69850000D02*
X143510000Y-69850000D01*
X151130000Y-69550000D02*
X151130000Y-69850000D01*
X151130000Y-64470000D02*
X151130000Y-67610000D01*
X143510000Y-64470000D02*
X143510000Y-67610000D01*
X143510000Y-69550000D02*
X143510000Y-69850000D01*
D14*
%TO.C,U3*%
X220980000Y-54610000D02*
X220980000Y-63500000D01*
X200660000Y-63500000D02*
X200660000Y-54610000D01*
X218440000Y-66040000D02*
X203200000Y-66040000D01*
X203200000Y-52070000D02*
X218440000Y-52070000D01*
X218440000Y-66040000D02*
G75*
G03*
X220980000Y-63500000I0J2540000D01*
G01*
X203200000Y-52070000D02*
G75*
G03*
X200660000Y-54610000I1J-2540001D01*
G01*
X200660000Y-63500000D02*
G75*
G03*
X203200000Y-66040000I2540001J1D01*
G01*
X220980000Y-54610000D02*
G75*
G03*
X218440000Y-52070000I-2540000J0D01*
G01*
D15*
X205200000Y-54610000D02*
G75*
G03*
X205200000Y-54610000I-2000000J0D01*
G01*
X220440000Y-54610000D02*
G75*
G03*
X220440000Y-54610000I-2000000J0D01*
G01*
D14*
%TO.C,U1*%
X172720000Y-54610000D02*
X172720000Y-63500000D01*
X152400000Y-63500000D02*
X152400000Y-54610000D01*
X170180000Y-66040000D02*
X154940000Y-66040000D01*
X154940000Y-52070000D02*
X170180000Y-52070000D01*
X170180000Y-66040000D02*
G75*
G03*
X172720000Y-63500000I0J2540000D01*
G01*
X154940000Y-52070000D02*
G75*
G03*
X152400000Y-54610000I1J-2540001D01*
G01*
X152400000Y-63500000D02*
G75*
G03*
X154940000Y-66040000I2540001J1D01*
G01*
X172720000Y-54610000D02*
G75*
G03*
X170180000Y-52070000I-2540000J0D01*
G01*
D15*
X156940000Y-54610000D02*
G75*
G03*
X156940000Y-54610000I-2000000J0D01*
G01*
X172180000Y-54610000D02*
G75*
G03*
X172180000Y-54610000I-2000000J0D01*
G01*
D14*
%TO.C,U2*%
X195580000Y-54610000D02*
X195580000Y-63500000D01*
X175260000Y-63500000D02*
X175260000Y-54610000D01*
X193040000Y-66040000D02*
X177800000Y-66040000D01*
X177800000Y-52070000D02*
X193040000Y-52070000D01*
X193040000Y-66040000D02*
G75*
G03*
X195580000Y-63500000I0J2540000D01*
G01*
X177800000Y-52070000D02*
G75*
G03*
X175260000Y-54610000I1J-2540001D01*
G01*
X175260000Y-63500000D02*
G75*
G03*
X177800000Y-66040000I2540001J1D01*
G01*
X195580000Y-54610000D02*
G75*
G03*
X193040000Y-52070000I-2540000J0D01*
G01*
D15*
X179800000Y-54610000D02*
G75*
G03*
X179800000Y-54610000I-2000000J0D01*
G01*
X195040000Y-54610000D02*
G75*
G03*
X195040000Y-54610000I-2000000J0D01*
G01*
D13*
%TO.C,D1*%
X188092500Y-89325000D02*
X188092500Y-90345000D01*
X189562500Y-91365000D02*
X186622500Y-91365000D01*
X186622500Y-90345000D02*
X186622500Y-95785000D01*
X189562500Y-91245000D02*
X186622500Y-91245000D01*
X189562500Y-91125000D02*
X186622500Y-91125000D01*
X189562500Y-95785000D02*
X189562500Y-90345000D01*
X189562500Y-90345000D02*
X186622500Y-90345000D01*
X188092500Y-96805000D02*
X188092500Y-95785000D01*
X186622500Y-95785000D02*
X189562500Y-95785000D01*
%TO.C,K2*%
X183998000Y-81746500D02*
X182093000Y-81746500D01*
X184720000Y-82254500D02*
X183998000Y-82254500D01*
X179020000Y-70132500D02*
X186820000Y-70132500D01*
X179020000Y-85332500D02*
X179020000Y-70132500D01*
X181458000Y-82889500D02*
X181458000Y-82254500D01*
X182093000Y-82762500D02*
X182093000Y-81746500D01*
X187020000Y-85532500D02*
X184820000Y-85532500D01*
X182474000Y-82762500D02*
X183109000Y-81746500D01*
X187020000Y-83432500D02*
X187020000Y-85532500D01*
X182093000Y-82762500D02*
X183998000Y-82762500D01*
X183998000Y-82762500D02*
X183998000Y-81746500D01*
X181458000Y-82254500D02*
X182093000Y-82254500D01*
X184720000Y-82532500D02*
X184720000Y-82254500D01*
X186820000Y-70132500D02*
X186820000Y-85332500D01*
X186820000Y-85332500D02*
X179020000Y-85332500D01*
%TO.C,K1*%
X199720000Y-83432500D02*
X199720000Y-85532500D01*
X196698000Y-81746500D02*
X194793000Y-81746500D01*
X199520000Y-70132500D02*
X199520000Y-85332500D01*
X191720000Y-70132500D02*
X199520000Y-70132500D01*
X194793000Y-82762500D02*
X196698000Y-82762500D01*
X199520000Y-85332500D02*
X191720000Y-85332500D01*
X194793000Y-82762500D02*
X194793000Y-81746500D01*
X194158000Y-82254500D02*
X194793000Y-82254500D01*
X197420000Y-82532500D02*
X197420000Y-82254500D01*
X195174000Y-82762500D02*
X195809000Y-81746500D01*
X194158000Y-82889500D02*
X194158000Y-82254500D01*
X196698000Y-82762500D02*
X196698000Y-81746500D01*
X199720000Y-85532500D02*
X197520000Y-85532500D01*
X197420000Y-82254500D02*
X196698000Y-82254500D01*
X191720000Y-85332500D02*
X191720000Y-70132500D01*
%TO.C,R3*%
X183822500Y-89605000D02*
X179982500Y-89605000D01*
X183822500Y-91445000D02*
X179982500Y-91445000D01*
%TO.C,Q2*%
X178092500Y-98205001D02*
G75*
G03*
X179930978Y-93766522I0J2600001D01*
G01*
X176254022Y-93766522D02*
G75*
G03*
X178092500Y-98205000I1838478J-1838478D01*
G01*
X179892500Y-93755000D02*
X176292500Y-93755000D01*
%TO.C,R4*%
X176202500Y-89605000D02*
X172362500Y-89605000D01*
X176202500Y-91445000D02*
X172362500Y-91445000D01*
%TO.C,SW1*%
X151130000Y-97490000D02*
X151130000Y-100630000D01*
X143510000Y-102570000D02*
X143510000Y-102870000D01*
X143510000Y-95250000D02*
X151130000Y-95250000D01*
X151130000Y-102870000D02*
X143510000Y-102870000D01*
X143510000Y-97490000D02*
X143510000Y-100630000D01*
X143510000Y-95250000D02*
X143510000Y-95550000D01*
X151130000Y-102570000D02*
X151130000Y-102870000D01*
X151130000Y-95250000D02*
X151130000Y-95550000D01*
X149860000Y-99060000D02*
G75*
G03*
X149860000Y-99060000I-2540000J0D01*
G01*
%TO.C,R1*%
X205252500Y-89605000D02*
X201412500Y-89605000D01*
X205252500Y-91445000D02*
X201412500Y-91445000D01*
%TO.C,Q1*%
X199522500Y-98205001D02*
G75*
G03*
X201360978Y-93766522I0J2600001D01*
G01*
X197684022Y-93766522D02*
G75*
G03*
X199522500Y-98205000I1838478J-1838478D01*
G01*
X201322500Y-93755000D02*
X197722500Y-93755000D01*
%TO.C,D2*%
X167772500Y-89325000D02*
X167772500Y-90345000D01*
X167772500Y-96805000D02*
X167772500Y-95785000D01*
X169242500Y-90345000D02*
X166302500Y-90345000D01*
X166302500Y-90345000D02*
X166302500Y-95785000D01*
X169242500Y-91245000D02*
X166302500Y-91245000D01*
X166302500Y-95785000D02*
X169242500Y-95785000D01*
X169242500Y-91365000D02*
X166302500Y-91365000D01*
X169242500Y-95785000D02*
X169242500Y-90345000D01*
X169242500Y-91125000D02*
X166302500Y-91125000D01*
%TO.C,R2*%
X196992500Y-91445000D02*
X193152500Y-91445000D01*
X196992500Y-89605000D02*
X193152500Y-89605000D01*
%TD*%
M02*
