M48
; DRILL file {KiCad (6.0.4)} date Thu Apr  7 11:47:21 2022
; FORMAT={-:-/ absolute / inch / decimal}
; #@! TF.CreationDate,2022-04-07T11:47:21-07:00
; #@! TF.GenerationSoftware,Kicad,Pcbnew,(6.0.4)
; #@! TF.FileFunction,Plated,1,2,PTH
FMAT,2
INCH
; #@! TA.AperFunction,Plated,PTH,ComponentDrill
T1C0.0276
; #@! TA.AperFunction,Plated,PTH,ComponentDrill
T2C0.0295
; #@! TA.AperFunction,Plated,PTH,ComponentDrill
T3C0.0315
; #@! TA.AperFunction,Plated,PTH,ComponentDrill
T4C0.0320
; #@! TA.AperFunction,Plated,PTH,ComponentDrill
T5C0.0365
; #@! TA.AperFunction,Plated,PTH,ComponentDrill
T6C0.0394
; #@! TA.AperFunction,Plated,PTH,ComponentDrill
T7C0.0400
; #@! TA.AperFunction,Plated,PTH,ComponentDrill
T8C0.0433
; #@! TA.AperFunction,Plated,PTH,ComponentDrill
T9C0.0984
%
G90
G05
T1
X6.925Y-3.775
X6.925Y-3.925
X7.125Y-3.775
X7.125Y-3.925
X8.025Y-3.8
X8.025Y-3.95
X8.225Y-3.8
X8.225Y-3.95
T2
X7.2733Y-3.8
X7.3233Y-3.8
X7.3733Y-3.8
X8.375Y-3.8
X8.425Y-3.8
X8.475Y-3.8
T3
X3.6Y-2.3098
X3.6Y-2.4098
X3.6Y-2.5098
X3.6Y-2.6098
X3.6Y-2.7098
X3.6Y-2.8098
X3.6Y-2.9098
X3.6Y-3.0098
X3.6Y-3.1098
X3.6Y-3.2098
X3.6Y-3.3098
X3.6Y-3.4098
X3.6Y-3.5098
X3.6Y-3.6098
X3.6Y-3.7098
X3.6Y-3.8098
X4.4Y-2.7098
X4.4Y-2.8098
X4.4Y-2.9098
X4.4Y-3.0098
X4.4Y-3.1098
X4.4Y-3.2098
X4.4Y-3.3098
X4.4Y-3.4098
X4.4Y-3.5098
X4.4Y-3.6098
X4.4Y-3.7098
X4.4Y-3.8098
X4.6142Y-2.31
X4.6142Y-2.41
X4.6142Y-2.51
X4.6142Y-2.61
X4.6142Y-2.71
X4.6142Y-2.81
X4.6142Y-2.91
X4.6142Y-3.01
X4.6142Y-3.11
X4.6142Y-3.21
X4.6142Y-3.31
X4.6142Y-3.41
X4.6142Y-3.51
X4.6142Y-3.61
X4.6142Y-3.71
X4.6142Y-3.81
X5.4142Y-2.71
X5.4142Y-2.81
X5.4142Y-2.91
X5.4142Y-3.01
X5.4142Y-3.11
X5.4142Y-3.21
X5.4142Y-3.31
X5.4142Y-3.41
X5.4142Y-3.51
X5.4142Y-3.61
X5.4142Y-3.71
X5.4142Y-3.81
T4
X5.6Y-2.2
X5.6Y-2.4
X5.9Y-2.2
X5.9Y-2.4
X7.775Y-2.2
X7.775Y-2.4
X8.075Y-2.2
X8.075Y-2.4
T5
X6.702Y-3.1906
X6.8035Y-3.1906
X6.9197Y-3.1906
X7.0212Y-3.1906
X7.1374Y-3.1906
X7.2389Y-3.1906
X7.3552Y-2.7928
X7.3552Y-2.8954
X7.3552Y-3.1906
X7.4566Y-2.7928
X7.4566Y-2.8954
X7.4566Y-3.1906
X7.802Y-3.1906
X7.9035Y-3.1906
X8.0197Y-3.1906
X8.1212Y-3.1906
X8.2374Y-3.1906
X8.3389Y-3.1906
X8.4552Y-2.7928
X8.4552Y-2.8954
X8.4552Y-3.1906
X8.5566Y-2.7928
X8.5566Y-2.8954
X8.5566Y-3.1906
T6
X6.05Y-2.5
X6.15Y-2.5
X6.25Y-2.5
X6.35Y-2.5
X6.45Y-2.5
X6.55Y-2.5
X6.65Y-2.5
X6.75Y-2.5
X6.95Y-2.5
X6.9677Y-3.4052
X6.9677Y-3.6052
X7.05Y-2.5
X7.0677Y-3.4052
X7.0677Y-3.6052
X7.15Y-2.5
X7.1677Y-3.4052
X7.1677Y-3.6052
X7.25Y-2.5
X7.2677Y-3.4052
X7.2677Y-3.6052
X7.35Y-2.5
X7.45Y-2.5
X7.4677Y-3.4052
X7.4677Y-3.6052
X7.55Y-2.5
X7.65Y-2.5
X8.0194Y-3.4052
X8.0194Y-3.6052
X8.1194Y-3.4052
X8.1194Y-3.6052
X8.2Y-2.5
X8.2194Y-3.4052
X8.2194Y-3.6052
X8.3Y-2.5
X8.3194Y-3.4052
X8.3194Y-3.6052
X8.4Y-2.5
X8.5Y-2.5
X8.5194Y-3.4052
X8.5194Y-3.6052
X8.6Y-2.5
X8.7Y-2.5
X8.8Y-2.5
X8.9Y-2.5
T7
X5.625Y-3.35
X5.65Y-3.525
X5.65Y-3.625
X5.65Y-3.725
X5.65Y-3.825
X5.725Y-3.35
X5.8125Y-3.35
X5.8125Y-4.0
X5.9125Y-3.35
X5.9125Y-4.0
X6.0Y-4.0
X6.1Y-4.0
X6.25Y-3.525
X6.25Y-3.625
X6.25Y-3.725
X6.25Y-3.825
T8
X6.7233Y-3.4
X6.7233Y-3.8
X7.825Y-3.4
X7.825Y-3.8
T9
X3.65Y-2.1598
X4.35Y-2.1598
X4.6642Y-2.16
X5.3642Y-2.16
X6.1Y-2.15
X6.7Y-2.15
X7.0Y-2.15
X7.6Y-2.15
X8.25Y-2.15
X8.85Y-2.15
T0
M30
