M48
; DRILL file {KiCad (6.0.4)} date Tue Apr  5 20:31:35 2022
; FORMAT={-:-/ absolute / inch / decimal}
; #@! TF.CreationDate,2022-04-05T20:31:35-07:00
; #@! TF.GenerationSoftware,Kicad,Pcbnew,(6.0.4)
; #@! TF.FileFunction,MixedPlating,1,2
FMAT,2
INCH
; #@! TA.AperFunction,Plated,PTH,ComponentDrill
T1C0.0276
; #@! TA.AperFunction,Plated,PTH,ComponentDrill
T2C0.0295
; #@! TA.AperFunction,Plated,PTH,ComponentDrill
T3C0.0315
; #@! TA.AperFunction,Plated,PTH,ComponentDrill
T4C0.0320
; #@! TA.AperFunction,Plated,PTH,ComponentDrill
T5C0.0394
; #@! TA.AperFunction,Plated,PTH,ComponentDrill
T6C0.0433
; #@! TA.AperFunction,Plated,PTH,ComponentDrill
T7C0.0984
%
G90
G05
T1
X6.7615Y-3.564
X6.9615Y-3.564
X7.0615Y-3.564
X7.2615Y-3.564
X7.58Y-3.564
X7.78Y-3.564
X7.9052Y-3.564
X8.1052Y-3.564
T2
X6.9615Y-3.764
X7.0115Y-3.764
X7.0615Y-3.764
X7.8052Y-3.764
X7.8552Y-3.764
X7.9052Y-3.764
T3
X3.6Y-2.3
X3.6Y-2.4
X3.6Y-2.5
X3.6Y-2.6
X3.6Y-2.7
X3.6Y-2.8
X3.6Y-2.9
X3.6Y-3.0
X3.6Y-3.1
X3.6Y-3.2
X3.6Y-3.3
X3.6Y-3.4
X3.6Y-3.5
X3.6Y-3.6
X3.6Y-3.7
X3.6Y-3.8
X4.4Y-2.7
X4.4Y-2.8
X4.4Y-2.9
X4.4Y-3.0
X4.4Y-3.1
X4.4Y-3.2
X4.4Y-3.3
X4.4Y-3.4
X4.4Y-3.5
X4.4Y-3.6
X4.4Y-3.7
X4.4Y-3.8
X4.7042Y-2.3
X4.7042Y-2.4
X4.7042Y-2.5
X4.7042Y-2.6
X4.7042Y-2.7
X4.7042Y-2.8
X4.7042Y-2.9
X4.7042Y-3.0
X4.7042Y-3.1
X4.7042Y-3.2
X4.7042Y-3.3
X4.7042Y-3.4
X4.7042Y-3.5
X4.7042Y-3.6
X4.7042Y-3.7
X4.7042Y-3.8
X5.5042Y-2.7
X5.5042Y-2.8
X5.5042Y-2.9
X5.5042Y-3.0
X5.5042Y-3.1
X5.5042Y-3.2
X5.5042Y-3.3
X5.5042Y-3.4
X5.5042Y-3.5
X5.5042Y-3.6
X5.5042Y-3.7
X5.5042Y-3.8
T4
X5.65Y-2.1
X5.65Y-2.3
X5.65Y-2.5
X5.65Y-2.7
X5.65Y-3.8
X5.65Y-4.0
X5.95Y-2.1
X5.95Y-2.3
X5.95Y-2.5
X5.95Y-2.7
X5.95Y-3.8
X5.95Y-4.0
T5
X6.05Y-2.5
X6.15Y-2.5
X6.25Y-2.5
X6.35Y-2.5
X6.45Y-2.5
X6.55Y-2.5
X6.65Y-2.5
X6.75Y-2.5
X6.95Y-2.5
X7.05Y-2.5
X7.1Y-2.8084
X7.1Y-2.9084
X7.1Y-3.0084
X7.1Y-3.1084
X7.1Y-3.3084
X7.15Y-2.5
X7.25Y-2.5
X7.3Y-2.8084
X7.3Y-2.9084
X7.3Y-3.0084
X7.3Y-3.1084
X7.3Y-3.3084
X7.35Y-2.5
X7.45Y-2.5
X7.55Y-2.5
X7.6Y-2.8084
X7.6Y-2.9084
X7.6Y-3.0084
X7.6Y-3.1084
X7.6Y-3.3084
X7.65Y-2.5
X7.8Y-2.8084
X7.8Y-2.9084
X7.8Y-3.0084
X7.8Y-3.1084
X7.8Y-3.3084
X7.95Y-2.5
X8.05Y-2.5
X8.15Y-2.5
X8.25Y-2.5
X8.35Y-2.5
X8.45Y-2.5
X8.55Y-2.5
X8.65Y-2.5
T6
X6.6052Y-3.464
X6.6052Y-3.864
X7.4052Y-3.464
X7.4052Y-3.864
T7
X6.1Y-2.15
X6.7Y-2.15
X7.0Y-2.15
X7.6Y-2.15
X8.0Y-2.15
X8.6Y-2.15
T0
M30
