%TF.GenerationSoftware,KiCad,Pcbnew,(6.0.4)*%
%TF.CreationDate,2022-04-07T11:47:19-07:00*%
%TF.ProjectId,2c1u,72666b76-6d2e-46b6-9963-61645f706362,rev?*%
%TF.SameCoordinates,Original*%
%TF.FileFunction,Copper,L1,Top*%
%TF.FilePolarity,Positive*%
%FSLAX46Y46*%
G04 Gerber Fmt 4.6, Leading zero omitted, Abs format (unit mm)*
G04 Created by KiCad (PCBNEW (6.0.4)) date 2022-04-07 11:47:19*
%MOMM*%
%LPD*%
G01*
G04 APERTURE LIST*
%TA.AperFunction,ComponentPad*%
%ADD10C,1.853030*%
%TD*%
%TA.AperFunction,ComponentPad*%
%ADD11C,1.397000*%
%TD*%
%TA.AperFunction,ComponentPad*%
%ADD12C,1.400000*%
%TD*%
%TA.AperFunction,ComponentPad*%
%ADD13O,1.400000X1.400000*%
%TD*%
%TA.AperFunction,ComponentPad*%
%ADD14C,1.930400*%
%TD*%
%TA.AperFunction,ComponentPad*%
%ADD15C,3.200000*%
%TD*%
%TA.AperFunction,ComponentPad*%
%ADD16R,2.000000X2.000000*%
%TD*%
%TA.AperFunction,ComponentPad*%
%ADD17C,2.000000*%
%TD*%
%TA.AperFunction,ComponentPad*%
%ADD18R,1.600000X1.600000*%
%TD*%
%TA.AperFunction,ComponentPad*%
%ADD19C,1.600000*%
%TD*%
%TA.AperFunction,SMDPad,CuDef*%
%ADD20C,1.853030*%
%TD*%
%TA.AperFunction,ComponentPad*%
%ADD21R,1.050000X1.500000*%
%TD*%
%TA.AperFunction,ComponentPad*%
%ADD22O,1.050000X1.500000*%
%TD*%
%TA.AperFunction,ComponentPad*%
%ADD23R,2.200000X2.200000*%
%TD*%
%TA.AperFunction,ComponentPad*%
%ADD24O,2.200000X2.200000*%
%TD*%
%TA.AperFunction,ComponentPad*%
%ADD25C,1.879600*%
%TD*%
%TA.AperFunction,Conductor*%
%ADD26C,0.250000*%
%TD*%
G04 APERTURE END LIST*
D10*
%TO.P,TUSB2,0,D+*%
%TO.N,Net-(TUSB2-Pad0)*%
X214761300Y-70937340D03*
%TO.P,TUSB2,1,D-*%
%TO.N,Net-(TUSB2-Pad1)*%
X214761300Y-73543170D03*
%TO.P,TUSB2,2,GND*%
%TO.N,GND*%
X217338100Y-70937340D03*
%TO.P,TUSB2,3,5V*%
%TO.N,Net-(A2-Pad26)*%
X217338100Y-73543170D03*
%TO.P,TUSB2,4,1D+*%
%TO.N,Net-(A2-Pad29)*%
X217338100Y-81040000D03*
%TO.P,TUSB2,5,1D-*%
%TO.N,Net-(A2-Pad30)*%
X214761300Y-81040000D03*
%TO.P,TUSB2,6,2D+*%
%TO.N,Net-(K2-Pad5)*%
X211808000Y-81040000D03*
%TO.P,TUSB2,7,2D-*%
%TO.N,Net-(K2-Pad8)*%
X209231100Y-81040000D03*
%TO.P,TUSB2,8,3D+*%
%TO.N,unconnected-(TUSB2-Pad8)*%
X206277840Y-81040000D03*
%TO.P,TUSB2,9,3D-*%
%TO.N,unconnected-(TUSB2-Pad9)*%
X203700970Y-81040000D03*
%TO.P,TUSB2,10,4D+*%
%TO.N,unconnected-(TUSB2-Pad10)*%
X200747700Y-81040000D03*
%TO.P,TUSB2,11,4D-*%
%TO.N,unconnected-(TUSB2-Pad11)*%
X198170820Y-81040000D03*
%TD*%
D11*
%TO.P,SW2,1,1*%
%TO.N,Net-(A1-Pad19)*%
X149860000Y-55880000D03*
X142240000Y-55880000D03*
%TO.P,SW2,2,2*%
%TO.N,+3V3*%
X149860000Y-60960000D03*
X142240000Y-60960000D03*
%TD*%
D12*
%TO.P,R3,1*%
%TO.N,Net-(Q1-Pad2)*%
X175895000Y-99695000D03*
D13*
%TO.P,R3,2*%
%TO.N,GND*%
X180975000Y-99695000D03*
%TD*%
D14*
%TO.P,U2,1,GND*%
%TO.N,GND*%
X194310000Y-63500000D03*
%TO.P,U2,2,VBUS*%
%TO.N,Net-(A2-Pad26)*%
X191770000Y-63500000D03*
%TO.P,U2,3,SBU2*%
%TO.N,unconnected-(U2-Pad3)*%
X189230000Y-63500000D03*
%TO.P,U2,4,CC1*%
%TO.N,unconnected-(U2-Pad4)*%
X186690000Y-63500000D03*
%TO.P,U2,5,D-*%
%TO.N,Net-(TUSB2-Pad1)*%
X184150000Y-63500000D03*
%TO.P,U2,6,D+*%
%TO.N,Net-(TUSB2-Pad0)*%
X181610000Y-63500000D03*
%TO.P,U2,7,SBU1*%
%TO.N,unconnected-(U2-Pad7)*%
X179070000Y-63500000D03*
%TO.P,U2,8,CC2*%
%TO.N,unconnected-(U2-Pad8)*%
X176530000Y-63500000D03*
D15*
%TO.P,U2,P$1*%
%TO.N,N/C*%
X193040000Y-54610000D03*
X177800000Y-54610000D03*
%TD*%
D14*
%TO.P,U3,1,GND*%
%TO.N,Net-(K1-Pad9)*%
X226060000Y-63500000D03*
%TO.P,U3,2,VBUS*%
%TO.N,Net-(K1-Pad4)*%
X223520000Y-63500000D03*
%TO.P,U3,3,SBU2*%
%TO.N,unconnected-(U3-Pad3)*%
X220980000Y-63500000D03*
%TO.P,U3,4,CC1*%
%TO.N,unconnected-(U3-Pad4)*%
X218440000Y-63500000D03*
%TO.P,U3,5,D-*%
%TO.N,Net-(K2-Pad9)*%
X215900000Y-63500000D03*
%TO.P,U3,6,D+*%
%TO.N,Net-(K2-Pad4)*%
X213360000Y-63500000D03*
%TO.P,U3,7,SBU1*%
%TO.N,unconnected-(U3-Pad7)*%
X210820000Y-63500000D03*
%TO.P,U3,8,CC2*%
%TO.N,unconnected-(U3-Pad8)*%
X208280000Y-63500000D03*
D15*
%TO.P,U3,P$1*%
%TO.N,N/C*%
X224790000Y-54610000D03*
X209550000Y-54610000D03*
%TD*%
D16*
%TO.P,K1,1*%
%TO.N,+3V3*%
X189679500Y-86492500D03*
D17*
%TO.P,K1,3*%
%TO.N,Net-(A1-Pad26)*%
X184599500Y-86492500D03*
%TO.P,K1,4*%
%TO.N,Net-(K1-Pad4)*%
X182059500Y-86492500D03*
%TO.P,K1,5*%
%TO.N,Net-(A2-Pad26)*%
X179519500Y-86492500D03*
%TO.P,K1,6*%
%TO.N,+3V3*%
X176979500Y-86492500D03*
%TO.P,K1,7*%
%TO.N,Net-(D2-Pad2)*%
X176979500Y-91572500D03*
%TO.P,K1,8*%
%TO.N,GND*%
X179519500Y-91572500D03*
%TO.P,K1,9*%
%TO.N,Net-(K1-Pad9)*%
X182059500Y-91572500D03*
%TO.P,K1,10*%
%TO.N,GND*%
X184599500Y-91572500D03*
%TO.P,K1,12*%
%TO.N,Net-(D1-Pad2)*%
X189679500Y-91572500D03*
%TD*%
D11*
%TO.P,SW3,1,1*%
%TO.N,Net-(A2-Pad2)*%
X197485000Y-55880000D03*
X205105000Y-55880000D03*
%TO.P,SW3,2,2*%
%TO.N,Net-(A2-Pad19)*%
X205105000Y-60960000D03*
X197485000Y-60960000D03*
%TD*%
D12*
%TO.P,R2,1*%
%TO.N,Net-(A1-Pad25)*%
X203835000Y-96520000D03*
D13*
%TO.P,R2,2*%
%TO.N,Net-(Q2-Pad2)*%
X208915000Y-96520000D03*
%TD*%
D10*
%TO.P,TUSB1,0,D+*%
%TO.N,Net-(TUSB1-Pad0)*%
X186821300Y-70937340D03*
%TO.P,TUSB1,1,D-*%
%TO.N,Net-(TUSB1-Pad1)*%
X186821300Y-73543170D03*
%TO.P,TUSB1,2,GND*%
%TO.N,GND*%
X189398100Y-70937340D03*
%TO.P,TUSB1,3,5V*%
%TO.N,Net-(A1-Pad26)*%
X189398100Y-73543170D03*
%TO.P,TUSB1,4,1D+*%
%TO.N,Net-(A1-Pad29)*%
X189398100Y-81040000D03*
%TO.P,TUSB1,5,1D-*%
%TO.N,Net-(A1-Pad30)*%
X186821300Y-81040000D03*
%TO.P,TUSB1,6,2D+*%
%TO.N,Net-(K2-Pad3)*%
X183868000Y-81040000D03*
%TO.P,TUSB1,7,2D-*%
%TO.N,Net-(K2-Pad10)*%
X181291100Y-81040000D03*
%TO.P,TUSB1,8,3D+*%
%TO.N,unconnected-(TUSB1-Pad8)*%
X178337840Y-81040000D03*
%TO.P,TUSB1,9,3D-*%
%TO.N,unconnected-(TUSB1-Pad9)*%
X175760970Y-81040000D03*
%TO.P,TUSB1,10,4D+*%
%TO.N,unconnected-(TUSB1-Pad10)*%
X172807700Y-81040000D03*
%TO.P,TUSB1,11,4D-*%
%TO.N,unconnected-(TUSB1-Pad11)*%
X170230820Y-81040000D03*
%TD*%
D14*
%TO.P,U1,1,GND*%
%TO.N,GND*%
X171450000Y-63500000D03*
%TO.P,U1,2,VBUS*%
%TO.N,Net-(A1-Pad26)*%
X168910000Y-63500000D03*
%TO.P,U1,3,SBU2*%
%TO.N,unconnected-(U1-Pad3)*%
X166370000Y-63500000D03*
%TO.P,U1,4,CC1*%
%TO.N,unconnected-(U1-Pad4)*%
X163830000Y-63500000D03*
%TO.P,U1,5,D-*%
%TO.N,Net-(TUSB1-Pad1)*%
X161290000Y-63500000D03*
%TO.P,U1,6,D+*%
%TO.N,Net-(TUSB1-Pad0)*%
X158750000Y-63500000D03*
%TO.P,U1,7,SBU1*%
%TO.N,unconnected-(U1-Pad7)*%
X156210000Y-63500000D03*
%TO.P,U1,8,CC2*%
%TO.N,unconnected-(U1-Pad8)*%
X153670000Y-63500000D03*
D15*
%TO.P,U1,P$1*%
%TO.N,N/C*%
X154940000Y-54610000D03*
X170180000Y-54610000D03*
%TD*%
D18*
%TO.P,A1,1,~{RESET}*%
%TO.N,unconnected-(A1-Pad1)*%
X91440000Y-58670000D03*
D19*
%TO.P,A1,2,3.3V*%
%TO.N,+3V3*%
X91440000Y-61210000D03*
%TO.P,A1,3,3.3V*%
%TO.N,unconnected-(A1-Pad3)*%
X91440000Y-63750000D03*
%TO.P,A1,4,GND*%
%TO.N,GND*%
X91440000Y-66290000D03*
%TO.P,A1,5,A0*%
%TO.N,unconnected-(A1-Pad5)*%
X91440000Y-68830000D03*
%TO.P,A1,6,A1*%
%TO.N,unconnected-(A1-Pad6)*%
X91440000Y-71370000D03*
%TO.P,A1,7,A2*%
%TO.N,unconnected-(A1-Pad7)*%
X91440000Y-73910000D03*
%TO.P,A1,8,A3*%
%TO.N,unconnected-(A1-Pad8)*%
X91440000Y-76450000D03*
%TO.P,A1,9,D24*%
%TO.N,unconnected-(A1-Pad9)*%
X91440000Y-78990000D03*
%TO.P,A1,10,D25*%
%TO.N,Net-(A1-Pad10)*%
X91440000Y-81530000D03*
%TO.P,A1,11,SCK*%
%TO.N,unconnected-(A1-Pad11)*%
X91440000Y-84070000D03*
%TO.P,A1,12,MOSI*%
%TO.N,unconnected-(A1-Pad12)*%
X91440000Y-86610000D03*
%TO.P,A1,13,MISO*%
%TO.N,unconnected-(A1-Pad13)*%
X91440000Y-89150000D03*
%TO.P,A1,14,RX*%
%TO.N,unconnected-(A1-Pad14)*%
X91440000Y-91690000D03*
%TO.P,A1,15,TX*%
%TO.N,unconnected-(A1-Pad15)*%
X91440000Y-94230000D03*
%TO.P,A1,16,D4*%
%TO.N,unconnected-(A1-Pad16)*%
X91440000Y-96770000D03*
%TO.P,A1,17,SDA*%
%TO.N,unconnected-(A1-Pad17)*%
X111760000Y-96770000D03*
%TO.P,A1,18,SCL*%
%TO.N,unconnected-(A1-Pad18)*%
X111760000Y-94230000D03*
%TO.P,A1,19,D5*%
%TO.N,Net-(A1-Pad19)*%
X111760000Y-91690000D03*
%TO.P,A1,20,D6*%
%TO.N,unconnected-(A1-Pad20)*%
X111760000Y-89150000D03*
%TO.P,A1,21,D9*%
%TO.N,Net-(SCB1-Pad2)*%
X111760000Y-86610000D03*
%TO.P,A1,22,D10*%
%TO.N,unconnected-(A1-Pad22)*%
X111760000Y-84070000D03*
%TO.P,A1,23,D11*%
%TO.N,unconnected-(A1-Pad23)*%
X111760000Y-81530000D03*
%TO.P,A1,24,D12*%
%TO.N,Net-(A1-Pad24)*%
X111760000Y-78990000D03*
%TO.P,A1,25,D13*%
%TO.N,Net-(A1-Pad25)*%
X111760000Y-76450000D03*
%TO.P,A1,26,VBUS*%
%TO.N,Net-(A1-Pad26)*%
X111760000Y-73910000D03*
%TO.P,A1,27,EN*%
%TO.N,unconnected-(A1-Pad27)*%
X111760000Y-71370000D03*
%TO.P,A1,28,VBAT*%
%TO.N,unconnected-(A1-Pad28)*%
X111760000Y-68830000D03*
D20*
%TO.P,A1,29,D+*%
%TO.N,Net-(A1-Pad29)*%
X100393501Y-53780501D03*
%TO.P,A1,30,D-*%
%TO.N,Net-(A1-Pad30)*%
X102997001Y-53717001D03*
D15*
%TO.P,A1,P$1*%
%TO.N,N/C*%
X92710001Y-54860001D03*
X110490001Y-54860001D03*
%TD*%
D18*
%TO.P,A2,1,~{RESET}*%
%TO.N,unconnected-(A2-Pad1)*%
X117201500Y-58674000D03*
D19*
%TO.P,A2,2,3.3V*%
%TO.N,Net-(A2-Pad2)*%
X117201500Y-61214000D03*
%TO.P,A2,3,3.3V*%
%TO.N,unconnected-(A2-Pad3)*%
X117201500Y-63754000D03*
%TO.P,A2,4,GND*%
%TO.N,GND*%
X117201500Y-66294000D03*
%TO.P,A2,5,A0*%
%TO.N,unconnected-(A2-Pad5)*%
X117201500Y-68834000D03*
%TO.P,A2,6,A1*%
%TO.N,unconnected-(A2-Pad6)*%
X117201500Y-71374000D03*
%TO.P,A2,7,A2*%
%TO.N,unconnected-(A2-Pad7)*%
X117201500Y-73914000D03*
%TO.P,A2,8,A3*%
%TO.N,unconnected-(A2-Pad8)*%
X117201500Y-76454000D03*
%TO.P,A2,9,D24*%
%TO.N,unconnected-(A2-Pad9)*%
X117201500Y-78994000D03*
%TO.P,A2,10,D25*%
%TO.N,unconnected-(A2-Pad10)*%
X117201500Y-81534000D03*
%TO.P,A2,11,SCK*%
%TO.N,unconnected-(A2-Pad11)*%
X117201500Y-84074000D03*
%TO.P,A2,12,MOSI*%
%TO.N,unconnected-(A2-Pad12)*%
X117201500Y-86614000D03*
%TO.P,A2,13,MISO*%
%TO.N,unconnected-(A2-Pad13)*%
X117201500Y-89154000D03*
%TO.P,A2,14,RX*%
%TO.N,unconnected-(A2-Pad14)*%
X117201500Y-91694000D03*
%TO.P,A2,15,TX*%
%TO.N,unconnected-(A2-Pad15)*%
X117201500Y-94234000D03*
%TO.P,A2,16,D4*%
%TO.N,unconnected-(A2-Pad16)*%
X117201500Y-96774000D03*
%TO.P,A2,17,SDA*%
%TO.N,unconnected-(A2-Pad17)*%
X137521500Y-96774000D03*
%TO.P,A2,18,SCL*%
%TO.N,unconnected-(A2-Pad18)*%
X137521500Y-94234000D03*
%TO.P,A2,19,D5*%
%TO.N,Net-(A2-Pad19)*%
X137521500Y-91694000D03*
%TO.P,A2,20,D6*%
%TO.N,unconnected-(A2-Pad20)*%
X137521500Y-89154000D03*
%TO.P,A2,21,D9*%
%TO.N,unconnected-(A2-Pad21)*%
X137521500Y-86614000D03*
%TO.P,A2,22,D10*%
%TO.N,unconnected-(A2-Pad22)*%
X137521500Y-84074000D03*
%TO.P,A2,23,D11*%
%TO.N,Net-(A1-Pad10)*%
X137521500Y-81534000D03*
%TO.P,A2,24,D12*%
%TO.N,unconnected-(A2-Pad24)*%
X137521500Y-78994000D03*
%TO.P,A2,25,D13*%
%TO.N,unconnected-(A2-Pad25)*%
X137521500Y-76454000D03*
%TO.P,A2,26,VBUS*%
%TO.N,Net-(A2-Pad26)*%
X137521500Y-73914000D03*
%TO.P,A2,27,EN*%
%TO.N,unconnected-(A2-Pad27)*%
X137521500Y-71374000D03*
%TO.P,A2,28,VBAT*%
%TO.N,unconnected-(A2-Pad28)*%
X137521500Y-68834000D03*
D20*
%TO.P,A2,29,D+*%
%TO.N,Net-(A2-Pad29)*%
X126155001Y-53784501D03*
%TO.P,A2,30,D-*%
%TO.N,Net-(A2-Pad30)*%
X128758501Y-53721001D03*
D15*
%TO.P,A2,P$1*%
%TO.N,N/C*%
X118471501Y-54864001D03*
X136251501Y-54864001D03*
%TD*%
D21*
%TO.P,Q2,1,E*%
%TO.N,GND*%
X215265000Y-96520000D03*
D22*
%TO.P,Q2,2,B*%
%TO.N,Net-(Q2-Pad2)*%
X213995000Y-96520000D03*
%TO.P,Q2,3,C*%
%TO.N,Net-(D2-Pad2)*%
X212725000Y-96520000D03*
%TD*%
D12*
%TO.P,R4,1*%
%TO.N,Net-(Q2-Pad2)*%
X203835000Y-100330000D03*
D13*
%TO.P,R4,2*%
%TO.N,GND*%
X208915000Y-100330000D03*
%TD*%
D16*
%TO.P,K2,1*%
%TO.N,+3V3*%
X216392500Y-86492500D03*
D17*
%TO.P,K2,3*%
%TO.N,Net-(K2-Pad3)*%
X211312500Y-86492500D03*
%TO.P,K2,4*%
%TO.N,Net-(K2-Pad4)*%
X208772500Y-86492500D03*
%TO.P,K2,5*%
%TO.N,Net-(K2-Pad5)*%
X206232500Y-86492500D03*
%TO.P,K2,6*%
%TO.N,+3V3*%
X203692500Y-86492500D03*
%TO.P,K2,7*%
%TO.N,Net-(D2-Pad2)*%
X203692500Y-91572500D03*
%TO.P,K2,8*%
%TO.N,Net-(K2-Pad8)*%
X206232500Y-91572500D03*
%TO.P,K2,9*%
%TO.N,Net-(K2-Pad9)*%
X208772500Y-91572500D03*
%TO.P,K2,10*%
%TO.N,Net-(K2-Pad10)*%
X211312500Y-91572500D03*
%TO.P,K2,12*%
%TO.N,Net-(D1-Pad2)*%
X216392500Y-91572500D03*
%TD*%
D12*
%TO.P,R1,1*%
%TO.N,Net-(A1-Pad24)*%
X175895000Y-95885000D03*
D13*
%TO.P,R1,2*%
%TO.N,Net-(Q1-Pad2)*%
X180975000Y-95885000D03*
%TD*%
D21*
%TO.P,Q1,1,E*%
%TO.N,GND*%
X187282000Y-96520000D03*
D22*
%TO.P,Q1,2,B*%
%TO.N,Net-(Q1-Pad2)*%
X186012000Y-96520000D03*
%TO.P,Q1,3,C*%
%TO.N,Net-(D1-Pad2)*%
X184742000Y-96520000D03*
%TD*%
D23*
%TO.P,D2,1,K*%
%TO.N,+3V3*%
X198755000Y-86360000D03*
D24*
%TO.P,D2,2,A*%
%TO.N,Net-(D2-Pad2)*%
X198755000Y-96520000D03*
%TD*%
D25*
%TO.P,SCB1,4,+*%
%TO.N,unconnected-(SCB1-Pad4)*%
X143510000Y-97155000D03*
X158750000Y-97155000D03*
X150177500Y-85090000D03*
X154940000Y-101600000D03*
X150177500Y-101600000D03*
X145415000Y-85090000D03*
%TO.P,SCB1,3,-*%
%TO.N,unconnected-(SCB1-Pad3)*%
X158750000Y-94615000D03*
X143510000Y-94615000D03*
%TO.P,SCB1,2,1*%
%TO.N,Net-(SCB1-Pad2)*%
X142875000Y-85090000D03*
X152400000Y-101600000D03*
X147637500Y-85090000D03*
X158750000Y-92075000D03*
X147637500Y-101600000D03*
X143510000Y-92075000D03*
%TO.P,SCB1,1,2*%
%TO.N,+3V3*%
X158750000Y-89535000D03*
X143510000Y-89535000D03*
%TD*%
D23*
%TO.P,D1,1,K*%
%TO.N,+3V3*%
X170772000Y-86360000D03*
D24*
%TO.P,D1,2,A*%
%TO.N,Net-(D1-Pad2)*%
X170772000Y-96520000D03*
%TD*%
D26*
%TO.N,+3V3*%
X176847000Y-86360000D02*
X176979500Y-86492500D01*
X142240000Y-60960000D02*
X141355900Y-60075900D01*
X170772000Y-86360000D02*
X176847000Y-86360000D01*
X158750000Y-89535000D02*
X143510000Y-89535000D01*
X213282600Y-88277100D02*
X215067200Y-86492500D01*
X141355900Y-60075900D02*
X92574100Y-60075900D01*
X203560000Y-86360000D02*
X198755000Y-86360000D01*
X205477100Y-88277100D02*
X213282600Y-88277100D01*
X92574100Y-60075900D02*
X91440000Y-61210000D01*
X216392500Y-86492500D02*
X215067200Y-86492500D01*
X198755000Y-86360000D02*
X197329700Y-86360000D01*
X189679500Y-86492500D02*
X197197200Y-86492500D01*
X197197200Y-86492500D02*
X197329700Y-86360000D01*
X203692500Y-86492500D02*
X203560000Y-86360000D01*
X203692500Y-86492500D02*
X205477100Y-88277100D01*
%TO.N,Net-(K1-Pad9)*%
X215681300Y-94178800D02*
X226060000Y-83800100D01*
X202506500Y-97551300D02*
X204668200Y-97551300D01*
X199315000Y-94359800D02*
X202506500Y-97551300D01*
X226060000Y-83800100D02*
X226060000Y-63500000D01*
X204668200Y-97551300D02*
X208040700Y-94178800D01*
X184846800Y-94359800D02*
X199315000Y-94359800D01*
X182059500Y-91572500D02*
X184846800Y-94359800D01*
X208040700Y-94178800D02*
X215681300Y-94178800D01*
%TO.N,Net-(K2-Pad3)*%
X211312500Y-86492500D02*
X208165200Y-83345200D01*
X186173200Y-83345200D02*
X183868000Y-81040000D01*
X208165200Y-83345200D02*
X186173200Y-83345200D01*
%TO.N,Net-(K2-Pad5)*%
X206232500Y-86492500D02*
X207566800Y-87826800D01*
X212650200Y-81882200D02*
X211808000Y-81040000D01*
X211853100Y-87826800D02*
X212650200Y-87029700D01*
X212650200Y-87029700D02*
X212650200Y-81882200D01*
X207566800Y-87826800D02*
X211853100Y-87826800D01*
%TO.N,Net-(K2-Pad10)*%
X190045300Y-89794200D02*
X181291100Y-81040000D01*
X211312500Y-91572500D02*
X209534200Y-89794200D01*
X209534200Y-89794200D02*
X190045300Y-89794200D01*
%TO.N,Net-(D1-Pad2)*%
X215032700Y-92932300D02*
X216392500Y-91572500D01*
X170772000Y-96520000D02*
X172197300Y-96520000D01*
X183494800Y-96916900D02*
X183891700Y-96520000D01*
X172594200Y-96916900D02*
X183494800Y-96916900D01*
X189679500Y-91572500D02*
X191039300Y-92932300D01*
X191039300Y-92932300D02*
X215032700Y-92932300D01*
X172197300Y-96520000D02*
X172594200Y-96916900D01*
X184742000Y-96520000D02*
X183891700Y-96520000D01*
%TO.N,Net-(A1-Pad10)*%
X136334600Y-82720900D02*
X92630900Y-82720900D01*
X137521500Y-81534000D02*
X136334600Y-82720900D01*
X92630900Y-82720900D02*
X91440000Y-81530000D01*
%TO.N,Net-(A1-Pad19)*%
X142240000Y-55880000D02*
X149860000Y-55880000D01*
%TO.N,Net-(A1-Pad24)*%
X111760000Y-78990000D02*
X113174600Y-80404600D01*
X113174600Y-80404600D02*
X160414600Y-80404600D01*
X160414600Y-80404600D02*
X175895000Y-95885000D01*
%TO.N,Net-(A1-Pad25)*%
X169121200Y-88269700D02*
X183858800Y-88269700D01*
X201090000Y-93775000D02*
X203835000Y-96520000D01*
X111760000Y-76450000D02*
X113034000Y-77724000D01*
X183858800Y-88269700D02*
X189364100Y-93775000D01*
X113034000Y-77724000D02*
X158575500Y-77724000D01*
X158575500Y-77724000D02*
X169121200Y-88269700D01*
X189364100Y-93775000D02*
X201090000Y-93775000D01*
%TO.N,Net-(A1-Pad26)*%
X188109700Y-72254800D02*
X188109700Y-70408800D01*
X113034000Y-75184000D02*
X111760000Y-73910000D01*
X173436300Y-68026300D02*
X168910000Y-63500000D01*
X188109700Y-70408800D02*
X185727200Y-68026300D01*
X184599500Y-86492500D02*
X183272700Y-87819300D01*
X189398100Y-73543200D02*
X188109700Y-72254800D01*
X183272700Y-87819300D02*
X169571200Y-87819300D01*
X169571200Y-87819300D02*
X156935900Y-75184000D01*
X156935900Y-75184000D02*
X113034000Y-75184000D01*
X185727200Y-68026300D02*
X173436300Y-68026300D01*
%TO.N,Net-(A1-Pad29)*%
X160108800Y-65495700D02*
X152760600Y-65495700D01*
X170913300Y-76300200D02*
X160108800Y-65495700D01*
X184658300Y-76300200D02*
X170913300Y-76300200D01*
X101735200Y-52438800D02*
X100393500Y-53780500D01*
X146163300Y-58898400D02*
X126850300Y-58898400D01*
X120390700Y-52438800D02*
X101735200Y-52438800D01*
X152760600Y-65495700D02*
X146163300Y-58898400D01*
X189398100Y-81040000D02*
X184658300Y-76300200D01*
X126850300Y-58898400D02*
X120390700Y-52438800D01*
%TO.N,Net-(A1-Pad30)*%
X151455900Y-66105000D02*
X154450000Y-66105000D01*
X185006700Y-79225400D02*
X186821300Y-81040000D01*
X167570400Y-79225400D02*
X185006700Y-79225400D01*
X102997000Y-53717000D02*
X106828700Y-57548700D01*
X144699700Y-59348800D02*
X151455900Y-66105000D01*
X106828700Y-57548700D02*
X118237000Y-57548700D01*
X118237000Y-57548700D02*
X120037100Y-59348800D01*
X120037100Y-59348800D02*
X144699700Y-59348800D01*
X154450000Y-66105000D02*
X167570400Y-79225400D01*
%TO.N,Net-(A2-Pad2)*%
X205105000Y-55880000D02*
X197485000Y-55880000D01*
%TO.N,Net-(A2-Pad26)*%
X193089100Y-64819100D02*
X210448500Y-64819100D01*
X161044800Y-73914000D02*
X171182400Y-84051600D01*
X191770000Y-63500000D02*
X193089100Y-64819100D01*
X216049700Y-70420300D02*
X216049700Y-72254800D01*
X216049700Y-72254800D02*
X217338100Y-73543200D01*
X177078600Y-84051600D02*
X179519500Y-86492500D01*
X171182400Y-84051600D02*
X177078600Y-84051600D01*
X210448500Y-64819100D02*
X216049700Y-70420300D01*
X137521500Y-73914000D02*
X161044800Y-73914000D01*
%TO.N,Net-(A2-Pad29)*%
X162834700Y-52266600D02*
X177188400Y-66620300D01*
X177188400Y-66620300D02*
X202918400Y-66620300D01*
X126155000Y-53784500D02*
X127672900Y-52266600D01*
X127672900Y-52266600D02*
X162834700Y-52266600D01*
X202918400Y-66620300D02*
X217338100Y-81040000D01*
%TO.N,Net-(A2-Pad30)*%
X167697400Y-57766200D02*
X177001800Y-67070600D01*
X200791900Y-67070600D02*
X214761300Y-81040000D01*
X177001800Y-67070600D02*
X200791900Y-67070600D01*
X128758500Y-53721000D02*
X132803700Y-57766200D01*
X132803700Y-57766200D02*
X167697400Y-57766200D01*
%TO.N,Net-(D2-Pad2)*%
X198755000Y-96520000D02*
X197329700Y-96520000D01*
X180266600Y-94859600D02*
X176979500Y-91572500D01*
X195669300Y-94859600D02*
X180266600Y-94859600D01*
X197329700Y-96520000D02*
X195669300Y-94859600D01*
%TO.N,Net-(Q1-Pad2)*%
X186012000Y-96520000D02*
X186012000Y-95444700D01*
X180975000Y-95885000D02*
X182000300Y-95885000D01*
X186012000Y-95444700D02*
X182440600Y-95444700D01*
X182440600Y-95444700D02*
X182000300Y-95885000D01*
%TO.N,Net-(Q2-Pad2)*%
X211015600Y-95444700D02*
X213995000Y-95444700D01*
X208915000Y-96520000D02*
X209940300Y-96520000D01*
X209940300Y-96520000D02*
X211015600Y-95444700D01*
X213995000Y-96520000D02*
X213995000Y-95444700D01*
%TO.N,Net-(TUSB1-Pad0)*%
X186821300Y-70937300D02*
X186821300Y-71603300D01*
X188109700Y-74079000D02*
X187350600Y-74838100D01*
X187350600Y-74838100D02*
X170088100Y-74838100D01*
X170088100Y-74838100D02*
X158750000Y-63500000D01*
X188109700Y-72891700D02*
X188109700Y-74079000D01*
X186821300Y-71603300D02*
X188109700Y-72891700D01*
%TO.N,Net-(TUSB1-Pad1)*%
X171333200Y-73543200D02*
X161290000Y-63500000D01*
X186821300Y-73543200D02*
X171333200Y-73543200D01*
%TO.N,Net-(TUSB2-Pad0)*%
X183604600Y-65494600D02*
X181610000Y-63500000D01*
X209318600Y-65494600D02*
X183604600Y-65494600D01*
X214761300Y-70937300D02*
X209318600Y-65494600D01*
%TO.N,Net-(TUSB2-Pad1)*%
X182838600Y-62188600D02*
X184150000Y-63500000D01*
X207163000Y-65944900D02*
X177149900Y-65944900D01*
X214761300Y-73543200D02*
X207163000Y-65944900D01*
X176006700Y-62188600D02*
X182838600Y-62188600D01*
X177149900Y-65944900D02*
X175219700Y-64014700D01*
X175219700Y-62975600D02*
X176006700Y-62188600D01*
X175219700Y-64014700D02*
X175219700Y-62975600D01*
%TO.N,Net-(SCB1-Pad2)*%
X143510000Y-92075000D02*
X142193400Y-90758400D01*
X142875000Y-86355400D02*
X142875000Y-85090000D01*
X142193400Y-87037000D02*
X142875000Y-86355400D01*
X142193400Y-90758400D02*
X142193400Y-87778100D01*
X151071800Y-102928200D02*
X148965700Y-102928200D01*
X112928100Y-87778100D02*
X111760000Y-86610000D01*
X142193400Y-87778100D02*
X112928100Y-87778100D01*
X148965700Y-102928200D02*
X147637500Y-101600000D01*
X146372100Y-86355400D02*
X147637500Y-85090000D01*
X152400000Y-101600000D02*
X151071800Y-102928200D01*
X142193400Y-87778100D02*
X142193400Y-87037000D01*
X142875000Y-86355400D02*
X146372100Y-86355400D01*
%TO.N,unconnected-(SCB1-Pad3)*%
X143510000Y-94615000D02*
X158750000Y-94615000D01*
%TO.N,unconnected-(SCB1-Pad4)*%
X158750000Y-97790000D02*
X158750000Y-97155000D01*
X158750000Y-97155000D02*
X160040300Y-95864700D01*
X154940000Y-101600000D02*
X158750000Y-97790000D01*
X160040300Y-89022300D02*
X156108000Y-85090000D01*
X160040300Y-95864700D02*
X160040300Y-89022300D01*
X156108000Y-85090000D02*
X150177500Y-85090000D01*
%TD*%
M02*
